<?xml version="1.0" encoding="utf-8"?>
<!-- Generator: Adobe Illustrator 24.1.2, SVG Export Plug-In . SVG Version: 6.00 Build 0)  -->
<svg version="1.1" id="Layer_1" xmlns="http://www.w3.org/2000/svg" xmlns:xlink="http://www.w3.org/1999/xlink" x="0px" y="0px"
	 viewBox="0 0 500 500" style="enable-background:new 0 0 500 500;" xml:space="preserve">
<style type="text/css">
	.st0{clip-path:url(#SVGID_2_);enable-background:new    ;}
	.st1{clip-path:url(#SVGID_4_);}
	.st2{clip-path:url(#SVGID_6_);}
	.st3{clip-path:url(#SVGID_8_);fill:#E7ECED;}
	.st4{clip-path:url(#SVGID_10_);}
	.st5{clip-path:url(#SVGID_12_);fill:#CDD1D2;}
	.st6{clip-path:url(#SVGID_14_);}
	.st7{clip-path:url(#SVGID_16_);fill:#78949B;}
	.st8{clip-path:url(#SVGID_18_);}
	.st9{clip-path:url(#SVGID_20_);fill:#78949B;}
	.st10{clip-path:url(#SVGID_22_);}
	.st11{clip-path:url(#SVGID_24_);fill:#78949B;}
	.st12{fill-rule:evenodd;clip-rule:evenodd;fill:#E7ECED;}
	.st13{fill-rule:evenodd;clip-rule:evenodd;fill:#78949B;}
	.st14{fill:#F2EDEF;}
	.st15{fill:#D5D1D4;}
	.st16{fill:#3DC8A6;}
	.st17{fill:#32A387;}
	.st18{fill:#FFFFFF;}
	.st19{fill:#D9DCDE;}
	.st20{fill:#CACDCF;}
	.st21{fill:#D3F2EB;}
	.st22{fill:#E8EBED;}
	.st23{fill:#CDD0D1;}
	.st24{fill:#809399;}
	.st25{fill:#C9CDCE;}
	.st26{fill:#F89F55;}
	.st27{fill:#FEF6ED;}
	.st28{clip-path:url(#SVGID_26_);}
	.st29{clip-path:url(#SVGID_28_);fill:#FEF3F5;}
	.st30{clip-path:url(#SVGID_30_);}
	.st31{clip-path:url(#SVGID_32_);fill:#FBD1D9;}
	.st32{enable-background:new    ;}
	.st33{clip-path:url(#SVGID_34_);}
	.st34{clip-path:url(#SVGID_36_);}
	.st35{clip-path:url(#SVGID_38_);fill:#F66E87;}
	.st36{clip-path:url(#SVGID_40_);}
	.st37{clip-path:url(#SVGID_42_);fill:#FFFFFF;}
	.st38{clip-path:url(#SVGID_44_);}
	.st39{clip-path:url(#SVGID_46_);fill:#F66E87;}
	.st40{clip-path:url(#SVGID_48_);}
	.st41{clip-path:url(#SVGID_50_);fill:#F892A3;}
	.st42{clip-path:url(#SVGID_52_);}
	.st43{clip-path:url(#SVGID_54_);fill:#F66E87;}
	.st44{clip-path:url(#SVGID_56_);}
	.st45{clip-path:url(#SVGID_58_);fill:#FBD1D9;}
	.st46{clip-path:url(#SVGID_60_);}
	.st47{clip-path:url(#SVGID_62_);fill:#F77C93;}
	.st48{clip-path:url(#SVGID_64_);}
	.st49{clip-path:url(#SVGID_66_);fill:#F77C93;}
	.st50{clip-path:url(#SVGID_68_);}
	.st51{clip-path:url(#SVGID_70_);fill:#F77C93;}
	.st52{clip-path:url(#SVGID_72_);}
	.st53{clip-path:url(#SVGID_74_);fill:#F77C93;}
	.st54{clip-path:url(#SVGID_80_);}
</style>
<g>
	<g>
		<path class="st16" d="M142.424,332.491l107.574-107.576l107.577,107.576l33.433-33.431l-96.677-96.675
			c5.484-3.411,10.592-7.354,15.109-11.883c15.175-15.138,24.632-36.303,24.619-59.441c0.013-23.138-9.445-44.303-24.619-59.441
			C294.303,56.446,273.137,46.988,249.999,47c-23.139-0.012-44.304,9.446-59.441,24.621c-15.175,15.137-24.633,36.302-24.621,59.441
			c-0.013,23.138,9.446,44.303,24.621,59.441c4.517,4.529,9.625,8.472,15.108,11.883l-96.674,96.675L142.424,332.491z
			 M223.99,105.052c6.731-6.693,15.778-10.762,26.01-10.774c10.232,0.012,19.278,4.08,26.008,10.774
			c6.694,6.731,10.762,15.777,10.774,26.01c-0.013,10.232-4.081,19.279-10.774,26.01c-6.731,6.693-15.776,10.761-26.008,10.774
			c-10.232-0.012-19.279-4.08-26.01-10.774c-6.693-6.731-10.762-15.777-10.774-26.009
			C213.228,120.83,217.296,111.784,223.99,105.052z"/>
		<polygon class="st16" points="108.992,419.569 142.424,453 249.998,345.424 357.575,453 391.008,419.569 249.997,278.561 		"/>
	</g>
</g>
</svg>
