<?xml version="1.0" encoding="utf-8"?>
<!-- Generator: Adobe Illustrator 24.1.2, SVG Export Plug-In . SVG Version: 6.00 Build 0)  -->
<svg version="1.1" id="Layer_1" xmlns="http://www.w3.org/2000/svg" xmlns:xlink="http://www.w3.org/1999/xlink" x="0px" y="0px"
	 viewBox="0 0 500 500" style="enable-background:new 0 0 500 500;" xml:space="preserve">
<style type="text/css">
	.st0{clip-path:url(#SVGID_2_);enable-background:new    ;}
	.st1{clip-path:url(#SVGID_4_);}
	.st2{clip-path:url(#SVGID_6_);}
	.st3{clip-path:url(#SVGID_8_);fill:#E7ECED;}
	.st4{clip-path:url(#SVGID_10_);}
	.st5{clip-path:url(#SVGID_12_);fill:#CDD1D2;}
	.st6{clip-path:url(#SVGID_14_);}
	.st7{clip-path:url(#SVGID_16_);fill:#78949B;}
	.st8{clip-path:url(#SVGID_18_);}
	.st9{clip-path:url(#SVGID_20_);fill:#78949B;}
	.st10{clip-path:url(#SVGID_22_);}
	.st11{clip-path:url(#SVGID_24_);fill:#78949B;}
	.st12{fill-rule:evenodd;clip-rule:evenodd;fill:#E7ECED;}
	.st13{fill-rule:evenodd;clip-rule:evenodd;fill:#78949B;}
	.st14{fill:#F2EDEF;}
	.st15{fill:#D5D1D4;}
	.st16{fill:#3DC8A6;}
	.st17{fill:#32A387;}
	.st18{fill:#FFFFFF;}
	.st19{fill:#D9DCDE;}
	.st20{fill:#CACDCF;}
	.st21{fill:#D3F2EB;}
	.st22{fill:#E8EBED;}
	.st23{fill:#CDD0D1;}
	.st24{fill:#809399;}
	.st25{fill:#C9CDCE;}
	.st26{fill:#F89F55;}
	.st27{fill:#FEF6ED;}
	.st28{clip-path:url(#SVGID_26_);}
	.st29{clip-path:url(#SVGID_28_);fill:#FEF3F5;}
	.st30{clip-path:url(#SVGID_30_);}
	.st31{clip-path:url(#SVGID_32_);fill:#FBD1D9;}
	.st32{enable-background:new    ;}
	.st33{clip-path:url(#SVGID_34_);}
	.st34{clip-path:url(#SVGID_36_);}
	.st35{clip-path:url(#SVGID_38_);fill:#F66E87;}
	.st36{clip-path:url(#SVGID_40_);}
	.st37{clip-path:url(#SVGID_42_);fill:#FFFFFF;}
	.st38{clip-path:url(#SVGID_44_);}
	.st39{clip-path:url(#SVGID_46_);fill:#F66E87;}
	.st40{clip-path:url(#SVGID_48_);}
	.st41{clip-path:url(#SVGID_50_);fill:#F892A3;}
	.st42{clip-path:url(#SVGID_52_);}
	.st43{clip-path:url(#SVGID_54_);fill:#F66E87;}
	.st44{clip-path:url(#SVGID_56_);}
	.st45{clip-path:url(#SVGID_58_);fill:#FBD1D9;}
	.st46{clip-path:url(#SVGID_60_);}
	.st47{clip-path:url(#SVGID_62_);fill:#F77C93;}
	.st48{clip-path:url(#SVGID_64_);}
	.st49{clip-path:url(#SVGID_66_);fill:#F77C93;}
	.st50{clip-path:url(#SVGID_68_);}
	.st51{clip-path:url(#SVGID_70_);fill:#F77C93;}
	.st52{clip-path:url(#SVGID_72_);}
	.st53{clip-path:url(#SVGID_74_);fill:#F77C93;}
	.st54{clip-path:url(#SVGID_80_);}
</style>
<g>
	<g>
		<defs>
			<path id="SVGID_9_" d="M-1318.255,5778.224c0.621,4.002-2.119,7.75-6.122,8.371l-50.627,7.862l6.072,1.83l46.654,2.028
				c4.047,0.177,7.467-2.961,7.646-7.008l3.929-90.479l-20.532-6.183L-1318.255,5778.224z"/>
		</defs>
		<clipPath id="SVGID_2_">
			<use xlink:href="#SVGID_9_"  style="overflow:visible;"/>
		</clipPath>
		<g style="clip-path:url(#SVGID_2_);">
			<defs>
				<rect id="SVGID_11_" x="-2811.696" y="-7918.732" width="3535.86" height="16569.432"/>
			</defs>
			<clipPath id="SVGID_4_">
				<use xlink:href="#SVGID_11_"  style="overflow:visible;"/>
			</clipPath>
		</g>
	</g>
	<g>
		<defs>
			<path id="SVGID_13_" d="M-1391.245,5721.183l40.945-6.357c3.322-0.518,5.601-3.631,5.085-6.958
				c-0.518-3.322-3.632-5.601-6.956-5.085l-40.945,6.36c-3.325,0.516-5.603,3.629-5.085,6.956
				C-1397.686,5719.422-1394.57,5721.701-1391.245,5721.183"/>
		</defs>
		<clipPath id="SVGID_6_">
			<use xlink:href="#SVGID_13_"  style="overflow:visible;"/>
		</clipPath>
		<g class="st2">
			<defs>
				<rect id="SVGID_15_" x="-2811.696" y="-7918.732" width="3535.86" height="16569.432"/>
			</defs>
			<clipPath id="SVGID_8_">
				<use xlink:href="#SVGID_15_"  style="overflow:visible;"/>
			</clipPath>
		</g>
	</g>
	<g>
		<defs>
			<path id="SVGID_17_" d="M-1387.118,5747.761l40.945-6.359c3.325-0.516,5.601-3.629,5.085-6.957
				c-0.516-3.325-3.629-5.601-6.956-5.085l-40.945,6.359c-3.325,0.516-5.601,3.629-5.085,6.957
				C-1393.559,5745.998-1390.443,5748.276-1387.118,5747.761"/>
		</defs>
		<clipPath id="SVGID_10_">
			<use xlink:href="#SVGID_17_"  style="overflow:visible;"/>
		</clipPath>
		<g class="st4">
			<defs>
				<rect id="SVGID_19_" x="-2811.696" y="-7918.732" width="3535.86" height="16569.432"/>
			</defs>
			<clipPath id="SVGID_12_">
				<use xlink:href="#SVGID_19_"  style="overflow:visible;"/>
			</clipPath>
		</g>
	</g>
	<g>
		<defs>
			<path id="SVGID_21_" d="M-1382.991,5774.337l40.945-6.357c3.325-0.518,5.603-3.631,5.085-6.956
				c-0.516-3.325-3.629-5.604-6.956-5.085l-40.945,6.357c-3.322,0.518-5.601,3.629-5.085,6.956
				C-1389.43,5772.576-1386.316,5774.855-1382.991,5774.337"/>
		</defs>
		<clipPath id="SVGID_14_">
			<use xlink:href="#SVGID_21_"  style="overflow:visible;"/>
		</clipPath>
		<g class="st6">
			<defs>
				<rect id="SVGID_23_" x="-2811.696" y="-7918.732" width="3535.86" height="16569.432"/>
			</defs>
			<clipPath id="SVGID_16_">
				<use xlink:href="#SVGID_23_"  style="overflow:visible;"/>
			</clipPath>
		</g>
	</g>
</g>
<g>
	<path class="st22" d="M348.868,451.988l-206.413-62.16c-11.834-3.564-18.538-16.046-14.974-27.88L209.776,88.67
		c3.564-11.834,16.046-18.538,27.88-14.974l206.413,62.16c11.834,3.564,18.538,16.046,14.974,27.88l-82.296,273.278
		C373.184,448.847,360.702,455.551,348.868,451.988z"/>
	<path class="st23" d="M242.292,75.092l-18.117-0.788c-6.621,2.244-12.229,7.164-14.4,14.366l-82.293,273.279
		c-3.565,11.834,3.138,24.316,14.974,27.879l44.214,13.314l142.366,6.185c12.345,0.536,22.789-9.038,23.327-21.386l11.995-276.091
		L242.292,75.092z"/>
	<path class="st22" d="M322.629,373.569l-213.016,33.081c-12.212,1.897-23.65-6.466-25.547-18.678l-43.798-282.02
		c-1.897-12.212,6.466-23.65,18.678-25.547l213.016-33.081c12.212-1.897,23.65,6.466,25.547,18.678l43.798,282.02
		C343.204,360.235,334.841,371.673,322.629,373.569z"/>
	<g>
		<path class="st24" d="M118.578,173.962l124.938-19.403c10.147-1.576,17.097-11.08,15.521-21.228
			c-1.576-10.148-11.081-17.096-21.228-15.521l-124.938,19.403c-10.149,1.576-17.097,11.08-15.521,21.228
			C98.926,168.589,108.428,175.539,118.578,173.962"/>
		<path class="st24" d="M131.172,255.063l124.938-19.403c10.147-1.576,17.097-11.08,15.521-21.228
			c-1.576-10.148-11.081-17.096-21.228-15.521l-124.938,19.403c-10.149,1.576-17.097,11.08-15.521,21.228
			C111.521,249.69,121.023,256.639,131.172,255.063"/>
		<path class="st24" d="M143.767,336.164l124.938-19.403c10.147-1.576,17.097-11.08,15.521-21.228
			c-1.576-10.148-11.081-17.096-21.228-15.521L138.06,299.415c-10.149,1.576-17.097,11.08-15.521,21.228
			C124.116,330.791,133.618,337.74,143.767,336.164"/>
	</g>
</g>
<g>
	<g>
		<g>
			<defs>
				<path id="SVGID_25_" d="M-189.305,997.56h-304.656c-4.643,0-8.406-3.739-8.406-8.35v-322.85c0-4.612,3.763-8.35,8.406-8.35
					h304.656c4.642,0,8.406,3.739,10.675,10.449v322.85C-180.899,993.821-184.663,997.56-189.305,997.56"/>
			</defs>
			<clipPath id="SVGID_18_">
				<use xlink:href="#SVGID_25_"  style="overflow:visible;"/>
			</clipPath>
			<g class="st8">
				<defs>
					<rect id="SVGID_27_" x="-2607.983" y="-14637.843" width="2893.213" height="19372.469"/>
				</defs>
				<clipPath id="SVGID_20_">
					<use xlink:href="#SVGID_27_"  style="overflow:visible;"/>
				</clipPath>
			</g>
		</g>
		<g>
			<defs>
				<path id="SVGID_29_" d="M-187.528,656h-308.209c-3.66,0-6.63,2.949-6.63,6.588v224.467l323.737,2.099V664.685
					C-180.899,658.949-183.867,656-187.528,656"/>
			</defs>
			<clipPath id="SVGID_22_">
				<use xlink:href="#SVGID_29_"  style="overflow:visible;"/>
			</clipPath>
			<g class="st10">
				<defs>
					<rect id="SVGID_31_" x="-2607.983" y="-14637.843" width="2893.213" height="19372.469"/>
				</defs>
				<clipPath id="SVGID_24_">
					<use xlink:href="#SVGID_31_"  style="overflow:visible;"/>
				</clipPath>
			</g>
		</g>
	</g>
</g>
</svg>
