<?xml version="1.0" encoding="utf-8"?>
<!-- Generator: Adobe Illustrator 24.1.2, SVG Export Plug-In . SVG Version: 6.00 Build 0)  -->
<svg version="1.1" id="Layer_1" xmlns="http://www.w3.org/2000/svg" xmlns:xlink="http://www.w3.org/1999/xlink" x="0px" y="0px"
	 viewBox="0 0 500 500" style="enable-background:new 0 0 500 500;" xml:space="preserve">
<style type="text/css">
	.st0{clip-path:url(#SVGID_2_);enable-background:new    ;}
	.st1{clip-path:url(#SVGID_4_);}
	.st2{clip-path:url(#SVGID_6_);}
	.st3{clip-path:url(#SVGID_8_);fill:#E7ECED;}
	.st4{clip-path:url(#SVGID_10_);}
	.st5{clip-path:url(#SVGID_12_);fill:#CDD1D2;}
	.st6{clip-path:url(#SVGID_14_);}
	.st7{clip-path:url(#SVGID_16_);fill:#78949B;}
	.st8{clip-path:url(#SVGID_18_);}
	.st9{clip-path:url(#SVGID_20_);fill:#78949B;}
	.st10{clip-path:url(#SVGID_22_);}
	.st11{clip-path:url(#SVGID_24_);fill:#78949B;}
	.st12{fill-rule:evenodd;clip-rule:evenodd;fill:#E7ECED;}
	.st13{fill-rule:evenodd;clip-rule:evenodd;fill:#78949B;}
	.st14{fill:#F2EDEF;}
	.st15{fill:#D5D1D4;}
	.st16{fill:#3DC8A6;}
	.st17{fill:#32A387;}
	.st18{fill:#FFFFFF;}
	.st19{fill:#D9DCDE;}
	.st20{fill:#CACDCF;}
	.st21{fill:#D3F2EB;}
	.st22{fill:#E8EBED;}
	.st23{fill:#CDD0D1;}
	.st24{fill:#809399;}
	.st25{fill:#C9CDCE;}
	.st26{fill:#F89F55;}
	.st27{fill:#FEF6ED;}
	.st28{clip-path:url(#SVGID_26_);}
	.st29{clip-path:url(#SVGID_28_);fill:#FEF3F5;}
	.st30{clip-path:url(#SVGID_30_);}
	.st31{clip-path:url(#SVGID_32_);fill:#FBD1D9;}
	.st32{enable-background:new    ;}
	.st33{clip-path:url(#SVGID_34_);}
	.st34{clip-path:url(#SVGID_36_);}
	.st35{clip-path:url(#SVGID_38_);fill:#F66E87;}
	.st36{clip-path:url(#SVGID_40_);}
	.st37{clip-path:url(#SVGID_42_);fill:#FFFFFF;}
	.st38{clip-path:url(#SVGID_44_);}
	.st39{clip-path:url(#SVGID_46_);fill:#F66E87;}
	.st40{clip-path:url(#SVGID_48_);}
	.st41{clip-path:url(#SVGID_50_);fill:#F892A3;}
	.st42{clip-path:url(#SVGID_52_);}
	.st43{clip-path:url(#SVGID_54_);fill:#F66E87;}
	.st44{clip-path:url(#SVGID_56_);}
	.st45{clip-path:url(#SVGID_58_);fill:#FBD1D9;}
	.st46{clip-path:url(#SVGID_60_);}
	.st47{clip-path:url(#SVGID_62_);fill:#F77C93;}
	.st48{clip-path:url(#SVGID_64_);}
	.st49{clip-path:url(#SVGID_66_);fill:#F77C93;}
	.st50{clip-path:url(#SVGID_68_);}
	.st51{clip-path:url(#SVGID_70_);fill:#F77C93;}
	.st52{clip-path:url(#SVGID_72_);}
	.st53{clip-path:url(#SVGID_74_);fill:#F77C93;}
	.st54{clip-path:url(#SVGID_80_);}
</style>
<g>
	<g>
		<defs>
			<path id="SVGID_9_" d="M-727.255,5778.224c0.621,4.002-2.119,7.75-6.121,8.371l-50.627,7.862l6.072,1.83l46.654,2.028
				c4.047,0.177,7.467-2.961,7.646-7.008l3.929-90.479l-20.533-6.183L-727.255,5778.224z"/>
		</defs>
		<clipPath id="SVGID_2_">
			<use xlink:href="#SVGID_9_"  style="overflow:visible;"/>
		</clipPath>
		<g style="clip-path:url(#SVGID_2_);">
			<defs>
				<rect id="SVGID_11_" x="-2220.696" y="-7918.732" width="3535.86" height="16569.432"/>
			</defs>
			<clipPath id="SVGID_4_">
				<use xlink:href="#SVGID_11_"  style="overflow:visible;"/>
			</clipPath>
		</g>
	</g>
	<g>
		<defs>
			<path id="SVGID_13_" d="M-800.245,5721.183l40.945-6.357c3.322-0.518,5.601-3.631,5.085-6.958
				c-0.518-3.322-3.632-5.601-6.956-5.085l-40.945,6.36c-3.325,0.516-5.603,3.629-5.085,6.956
				C-806.686,5719.422-803.57,5721.701-800.245,5721.183"/>
		</defs>
		<clipPath id="SVGID_6_">
			<use xlink:href="#SVGID_13_"  style="overflow:visible;"/>
		</clipPath>
		<g class="st2">
			<defs>
				<rect id="SVGID_15_" x="-2220.696" y="-7918.732" width="3535.86" height="16569.432"/>
			</defs>
			<clipPath id="SVGID_8_">
				<use xlink:href="#SVGID_15_"  style="overflow:visible;"/>
			</clipPath>
		</g>
	</g>
	<g>
		<defs>
			<path id="SVGID_17_" d="M-796.118,5747.761l40.945-6.359c3.325-0.516,5.601-3.629,5.085-6.957
				c-0.516-3.325-3.629-5.601-6.956-5.085l-40.945,6.359c-3.325,0.516-5.601,3.629-5.085,6.957
				C-802.559,5745.998-799.443,5748.276-796.118,5747.761"/>
		</defs>
		<clipPath id="SVGID_10_">
			<use xlink:href="#SVGID_17_"  style="overflow:visible;"/>
		</clipPath>
		<g class="st4">
			<defs>
				<rect id="SVGID_19_" x="-2220.696" y="-7918.732" width="3535.86" height="16569.432"/>
			</defs>
			<clipPath id="SVGID_12_">
				<use xlink:href="#SVGID_19_"  style="overflow:visible;"/>
			</clipPath>
		</g>
	</g>
	<g>
		<defs>
			<path id="SVGID_21_" d="M-791.992,5774.337l40.945-6.357c3.325-0.518,5.603-3.631,5.085-6.956
				c-0.516-3.325-3.629-5.604-6.956-5.085l-40.945,6.357c-3.322,0.518-5.601,3.629-5.085,6.956
				C-798.43,5772.576-795.316,5774.855-791.992,5774.337"/>
		</defs>
		<clipPath id="SVGID_14_">
			<use xlink:href="#SVGID_21_"  style="overflow:visible;"/>
		</clipPath>
		<g class="st6">
			<defs>
				<rect id="SVGID_23_" x="-2220.696" y="-7918.732" width="3535.86" height="16569.432"/>
			</defs>
			<clipPath id="SVGID_16_">
				<use xlink:href="#SVGID_23_"  style="overflow:visible;"/>
			</clipPath>
		</g>
	</g>
</g>
<g>
	<path class="st14" d="M149.782,270.848V151.931h-87.29c-15.875,0-28.909,15.578-28.909,34.902V317.75
		c0,19.473,13.034,35.051,31.158,34.152H94.82v1.068l60.86-1.029l-60.86,21.837v45.588c0,13.909,19.905,19.848,29.739,10.012
		l77.437-77.438l-0.04-0.039h59.46c11.834,0.75,23.218-10.785,25.914-26.662c0.45-2.397,0.75-4.943,0.75-7.49v-4.858h-96.257
		C168.604,312.892,149.782,294.068,149.782,270.848z"/>
	<polygon class="st15" points="94.82,352.97 94.82,373.779 155.68,351.942 	"/>
	<path class="st16" d="M429.386,65.752H207.058c-20.454,0-37.035,16.58-37.035,37.033v157.413c0,20.453,16.582,37.033,37.035,37.033
		h100.912l-0.014,0.017l0.702,0.704v-0.704h63.676l-48.894,15.483l0.16,0.162l61.914,61.772c9.713,9.853,26.601,2.815,26.601-10.979
		v-50.792v-15.661h17.271c20.454,0,37.031-16.58,37.031-37.033V102.785C466.417,82.332,449.839,65.752,429.386,65.752z"/>
	<polygon class="st17" points="308.657,297.247 308.657,297.951 323.439,312.73 372.333,297.247 	"/>
	<g>
		<path class="st18" d="M317.844,217.609c-5.444,0-10.101,1.898-13.954,5.707c-3.861,3.81-5.766,8.386-5.714,13.728
			c-0.051,5.444,1.854,10.086,5.714,13.918c3.853,3.832,8.51,5.751,13.954,5.751c3.474,0,6.692-0.883,9.641-2.649
			c2.948-1.766,5.342-4.138,7.189-7.108c1.839-2.978,2.781-6.284,2.832-9.911c-0.051-5.342-2.043-9.918-5.97-13.728
			C327.602,219.507,323.033,217.609,317.844,217.609z"/>
		<path class="st18" d="M348.358,102.335c-8.086-3.226-17.333-4.839-27.718-4.839c-9.48,0-18.15,1.627-26.018,4.882
			c-7.867,3.248-14.18,8.254-18.946,15.012c-4.766,6.758-7.225,15.428-7.371,26.018h34.79c0.051-3.532,0.89-6.546,2.532-9.042
			c1.635-2.496,3.759-4.423,6.357-5.78c2.591-1.365,5.379-2.043,8.356-2.043c2.97,0,5.685,0.613,8.13,1.854
			c2.445,1.233,4.372,2.985,5.787,5.255c1.409,2.27,2.116,4.89,2.116,7.867c0,3.073-0.73,5.824-2.197,8.24
			c-1.46,2.423-3.437,4.678-5.933,6.773c-2.496,2.095-5.335,4.145-8.51,6.167c-3.985,2.569-7.364,5.408-10.137,8.502
			c-2.773,3.102-4.875,7.203-6.313,12.297c-1.438,5.087-2.16,11.925-2.16,20.493v3.102h32.221v-3.102
			c0-4.488,0.635-8.283,1.89-11.385c1.263-3.102,3.138-5.86,5.634-8.276c2.496-2.423,5.641-4.744,9.422-6.962
			c4.839-2.875,9.064-6.065,12.67-9.568c3.605-3.503,6.415-7.546,8.429-12.137c2.014-4.591,3.029-9.882,3.029-15.888
			c0-9.123-2.321-16.837-6.962-23.142C362.823,110.334,356.451,105.569,348.358,102.335z"/>
	</g>
</g>
<g>
	<g>
		<g>
			<defs>
				<path id="SVGID_25_" d="M401.695,997.56H97.039c-4.643,0-8.406-3.739-8.406-8.35v-322.85c0-4.612,3.763-8.35,8.406-8.35h304.656
					c4.642,0,8.406,3.739,10.675,10.449v322.85C410.101,993.821,406.337,997.56,401.695,997.56"/>
			</defs>
			<clipPath id="SVGID_18_">
				<use xlink:href="#SVGID_25_"  style="overflow:visible;"/>
			</clipPath>
			<g class="st8">
				<defs>
					<rect id="SVGID_27_" x="-2016.983" y="-14637.843" width="2893.213" height="19372.469"/>
				</defs>
				<clipPath id="SVGID_20_">
					<use xlink:href="#SVGID_27_"  style="overflow:visible;"/>
				</clipPath>
			</g>
		</g>
		<g>
			<defs>
				<path id="SVGID_29_" d="M403.472,656H95.263c-3.66,0-6.63,2.949-6.63,6.588v224.467l323.737,2.099V664.685
					C410.101,658.949,407.133,656,403.472,656"/>
			</defs>
			<clipPath id="SVGID_22_">
				<use xlink:href="#SVGID_29_"  style="overflow:visible;"/>
			</clipPath>
			<g class="st10">
				<defs>
					<rect id="SVGID_31_" x="-2016.983" y="-14637.843" width="2893.213" height="19372.469"/>
				</defs>
				<clipPath id="SVGID_24_">
					<use xlink:href="#SVGID_31_"  style="overflow:visible;"/>
				</clipPath>
			</g>
		</g>
	</g>
</g>
</svg>
