<?xml version="1.0" encoding="utf-8"?>
<!-- Generator: Adobe Illustrator 24.1.2, SVG Export Plug-In . SVG Version: 6.00 Build 0)  -->
<svg version="1.1" id="Layer_1" xmlns="http://www.w3.org/2000/svg" xmlns:xlink="http://www.w3.org/1999/xlink" x="0px" y="0px"
	 viewBox="0 0 500 500" style="enable-background:new 0 0 500 500;" xml:space="preserve">
<style type="text/css">
	.st0{clip-path:url(#SVGID_2_);enable-background:new    ;}
	.st1{clip-path:url(#SVGID_4_);}
	.st2{clip-path:url(#SVGID_6_);}
	.st3{clip-path:url(#SVGID_8_);fill:#E7ECED;}
	.st4{clip-path:url(#SVGID_10_);}
	.st5{clip-path:url(#SVGID_12_);fill:#CDD1D2;}
	.st6{clip-path:url(#SVGID_14_);}
	.st7{clip-path:url(#SVGID_16_);fill:#78949B;}
	.st8{clip-path:url(#SVGID_18_);}
	.st9{clip-path:url(#SVGID_20_);fill:#78949B;}
	.st10{clip-path:url(#SVGID_22_);}
	.st11{clip-path:url(#SVGID_24_);fill:#78949B;}
	.st12{fill-rule:evenodd;clip-rule:evenodd;fill:#E7ECED;}
	.st13{fill-rule:evenodd;clip-rule:evenodd;fill:#78949B;}
	.st14{fill:#F2EDEF;}
	.st15{fill:#D5D1D4;}
	.st16{fill:#3DC8A6;}
	.st17{fill:#32A387;}
	.st18{fill:#FFFFFF;}
	.st19{fill:#D9DCDE;}
	.st20{fill:#CACDCF;}
	.st21{fill:#D3F2EB;}
	.st22{fill:#E8EBED;}
	.st23{fill:#CDD0D1;}
	.st24{fill:#809399;}
	.st25{fill:#C9CDCE;}
	.st26{fill:#F89F55;}
	.st27{fill:#FEF6ED;}
	.st28{clip-path:url(#SVGID_26_);}
	.st29{clip-path:url(#SVGID_28_);fill:#FEF3F5;}
	.st30{clip-path:url(#SVGID_30_);}
	.st31{clip-path:url(#SVGID_32_);fill:#FBD1D9;}
	.st32{enable-background:new    ;}
	.st33{clip-path:url(#SVGID_34_);}
	.st34{clip-path:url(#SVGID_36_);}
	.st35{clip-path:url(#SVGID_38_);fill:#F66E87;}
	.st36{clip-path:url(#SVGID_40_);}
	.st37{clip-path:url(#SVGID_42_);fill:#FFFFFF;}
	.st38{clip-path:url(#SVGID_44_);}
	.st39{clip-path:url(#SVGID_46_);fill:#F66E87;}
	.st40{clip-path:url(#SVGID_48_);}
	.st41{clip-path:url(#SVGID_50_);fill:#F892A3;}
	.st42{clip-path:url(#SVGID_52_);}
	.st43{clip-path:url(#SVGID_54_);fill:#F66E87;}
	.st44{clip-path:url(#SVGID_56_);}
	.st45{clip-path:url(#SVGID_58_);fill:#FBD1D9;}
	.st46{clip-path:url(#SVGID_60_);}
	.st47{clip-path:url(#SVGID_62_);fill:#F77C93;}
	.st48{clip-path:url(#SVGID_64_);}
	.st49{clip-path:url(#SVGID_66_);fill:#F77C93;}
	.st50{clip-path:url(#SVGID_68_);}
	.st51{clip-path:url(#SVGID_70_);fill:#F77C93;}
	.st52{clip-path:url(#SVGID_72_);}
	.st53{clip-path:url(#SVGID_74_);fill:#F77C93;}
	.st54{clip-path:url(#SVGID_80_);}
</style>
<g>
	<g>
		<defs>
			<path id="SVGID_9_" d="M-727.255,5205.224c0.621,4.002-2.119,7.75-6.121,8.371l-50.627,7.862l6.072,1.83l46.654,2.028
				c4.047,0.177,7.467-2.961,7.646-7.008l3.929-90.479l-20.533-6.183L-727.255,5205.224z"/>
		</defs>
		<clipPath id="SVGID_2_">
			<use xlink:href="#SVGID_9_"  style="overflow:visible;"/>
		</clipPath>
		<g style="clip-path:url(#SVGID_2_);">
			<defs>
				<rect id="SVGID_11_" x="-2220.696" y="-8491.732" width="3535.86" height="16569.432"/>
			</defs>
			<clipPath id="SVGID_4_">
				<use xlink:href="#SVGID_11_"  style="overflow:visible;"/>
			</clipPath>
		</g>
	</g>
	<g>
		<defs>
			<path id="SVGID_13_" d="M-800.245,5148.183l40.945-6.357c3.322-0.518,5.601-3.631,5.085-6.958
				c-0.518-3.322-3.632-5.601-6.956-5.085l-40.945,6.36c-3.325,0.516-5.603,3.629-5.085,6.956
				C-806.686,5146.422-803.57,5148.701-800.245,5148.183"/>
		</defs>
		<clipPath id="SVGID_6_">
			<use xlink:href="#SVGID_13_"  style="overflow:visible;"/>
		</clipPath>
		<g class="st2">
			<defs>
				<rect id="SVGID_15_" x="-2220.696" y="-8491.732" width="3535.86" height="16569.432"/>
			</defs>
			<clipPath id="SVGID_8_">
				<use xlink:href="#SVGID_15_"  style="overflow:visible;"/>
			</clipPath>
		</g>
	</g>
	<g>
		<defs>
			<path id="SVGID_17_" d="M-796.118,5174.761l40.945-6.359c3.325-0.516,5.601-3.629,5.085-6.957
				c-0.516-3.325-3.629-5.601-6.956-5.085l-40.945,6.359c-3.325,0.516-5.601,3.629-5.085,6.957
				C-802.559,5172.998-799.443,5175.276-796.118,5174.761"/>
		</defs>
		<clipPath id="SVGID_10_">
			<use xlink:href="#SVGID_17_"  style="overflow:visible;"/>
		</clipPath>
		<g class="st4">
			<defs>
				<rect id="SVGID_19_" x="-2220.696" y="-8491.732" width="3535.86" height="16569.432"/>
			</defs>
			<clipPath id="SVGID_12_">
				<use xlink:href="#SVGID_19_"  style="overflow:visible;"/>
			</clipPath>
		</g>
	</g>
	<g>
		<defs>
			<path id="SVGID_21_" d="M-791.992,5201.337l40.945-6.357c3.325-0.518,5.603-3.631,5.085-6.956
				c-0.516-3.325-3.629-5.604-6.956-5.085l-40.945,6.357c-3.322,0.518-5.601,3.629-5.085,6.956
				C-798.43,5199.576-795.316,5201.855-791.992,5201.337"/>
		</defs>
		<clipPath id="SVGID_14_">
			<use xlink:href="#SVGID_21_"  style="overflow:visible;"/>
		</clipPath>
		<g class="st6">
			<defs>
				<rect id="SVGID_23_" x="-2220.696" y="-8491.732" width="3535.86" height="16569.432"/>
			</defs>
			<clipPath id="SVGID_16_">
				<use xlink:href="#SVGID_23_"  style="overflow:visible;"/>
			</clipPath>
		</g>
	</g>
</g>
<g>
	<g>
		<g>
			<defs>
				<path id="SVGID_25_" d="M401.695,424.56H97.039c-4.643,0-8.406-3.739-8.406-8.35V93.36c0-4.612,3.763-8.35,8.406-8.35h304.656
					c4.642,0,8.406,3.739,10.675,10.449v322.85C410.101,420.821,406.337,424.56,401.695,424.56"/>
			</defs>
			<clipPath id="SVGID_18_">
				<use xlink:href="#SVGID_25_"  style="overflow:visible;"/>
			</clipPath>
			<g class="st8">
				<defs>
					<rect id="SVGID_27_" x="-2016.983" y="-15210.843" width="2893.213" height="19372.469"/>
				</defs>
				<clipPath id="SVGID_20_">
					<use xlink:href="#SVGID_27_"  style="overflow:visible;"/>
				</clipPath>
				<polygon style="clip-path:url(#SVGID_20_);fill:#FEF3F5;" points="78.587,74.963 422.416,77.062 422.416,436.704 
					78.587,434.606 				"/>
			</g>
		</g>
		<g>
			<defs>
				<path id="SVGID_29_" d="M403.472,83H95.263c-3.66,0-6.63,2.949-6.63,6.588v224.467l323.737,2.099V91.685
					C410.101,85.949,407.133,83,403.472,83"/>
			</defs>
			<clipPath id="SVGID_22_">
				<use xlink:href="#SVGID_29_"  style="overflow:visible;"/>
			</clipPath>
			<g class="st10">
				<defs>
					<rect id="SVGID_31_" x="-2016.983" y="-15210.843" width="2893.213" height="19372.469"/>
				</defs>
				<clipPath id="SVGID_24_">
					<use xlink:href="#SVGID_31_"  style="overflow:visible;"/>
				</clipPath>
				<polygon style="clip-path:url(#SVGID_24_);fill:#FBD1D9;" points="78.587,72.954 422.416,75.053 422.416,326.2 78.587,324.101 
									"/>
			</g>
		</g>
		<g>
			<g>
				<g class="st32">
					<g>
						<defs>
							<polygon id="SVGID_33_" points="89.683,389.354 413.419,391.453 412.37,113.227 88.633,111.128 							"/>
						</defs>
						<clipPath id="SVGID_26_">
							<use xlink:href="#SVGID_33_"  style="overflow:visible;"/>
						</clipPath>
						<g class="st28">
							<defs>
								<rect id="SVGID_35_" x="88.633" y="263.826" width="323.965" height="52.239"/>
							</defs>
							<clipPath id="SVGID_28_">
								<use xlink:href="#SVGID_35_"  style="overflow:visible;"/>
							</clipPath>
							<g style="clip-path:url(#SVGID_28_);">
								<defs>
									<rect id="SVGID_37_" x="4.248" y="60.899" width="474.165" height="383.753"/>
								</defs>
								<clipPath id="SVGID_30_">
									<use xlink:href="#SVGID_37_"  style="overflow:visible;"/>
								</clipPath>
								<rect x="78.587" y="253.78" style="clip-path:url(#SVGID_30_);fill:#F66E87;" width="341.56" height="72.33"/>
							</g>
						</g>
						<g class="st28">
							<defs>
								<path id="SVGID_39_" d="M287.41,293.963H138.993c-1.181,0-2.139-0.94-2.139-2.099v-94.342h152.697v94.342
									C289.551,293.024,288.591,293.963,287.41,293.963"/>
							</defs>
							<clipPath id="SVGID_32_">
								<use xlink:href="#SVGID_39_"  style="overflow:visible;"/>
							</clipPath>
							<g style="clip-path:url(#SVGID_32_);">
								<defs>
									<rect id="SVGID_41_" x="4.248" y="60.899" width="474.165" height="383.753"/>
								</defs>
								<clipPath id="SVGID_34_">
									<use xlink:href="#SVGID_41_"  style="overflow:visible;"/>
								</clipPath>
								<rect x="126.808" y="187.477" style="clip-path:url(#SVGID_34_);fill:#FFFFFF;" width="172.789" height="116.532"/>
							</g>
						</g>
						<g class="st28">
							<defs>
								<path id="SVGID_43_" d="M179.046,191.495h-32.147v-44.892c0-1.838,1.446-3.328,3.228-3.328h25.69
									c1.782,0,3.228,1.49,3.228,3.328V191.495z"/>
							</defs>
							<clipPath id="SVGID_36_">
								<use xlink:href="#SVGID_43_"  style="overflow:visible;"/>
							</clipPath>
							<g class="st34">
								<defs>
									<rect id="SVGID_45_" x="4.248" y="60.899" width="474.165" height="383.753"/>
								</defs>
								<clipPath id="SVGID_38_">
									<use xlink:href="#SVGID_45_"  style="overflow:visible;"/>
								</clipPath>
								<rect x="136.853" y="133.229" class="st35" width="52.239" height="68.312"/>
							</g>
						</g>
						<g class="st28">
							<defs>
								<path id="SVGID_47_" d="M206.631,135.443l-73.66,56.378c-4.171,3.194-1.853,9.72,3.454,9.72h153.554
									c5.306,0,7.625-6.526,3.454-9.72l-73.658-56.378C215.918,132.491,210.488,132.491,206.631,135.443"/>
							</defs>
							<clipPath id="SVGID_40_">
								<use xlink:href="#SVGID_47_"  style="overflow:visible;"/>
							</clipPath>
							<g class="st36">
								<defs>
									<rect id="SVGID_49_" x="4.248" y="60.899" width="474.165" height="383.753"/>
								</defs>
								<clipPath id="SVGID_42_">
									<use xlink:href="#SVGID_49_"  style="overflow:visible;"/>
								</clipPath>
								<rect x="120.78" y="123.184" style="clip-path:url(#SVGID_42_);fill:#F892A3;" width="184.844" height="88.404"/>
							</g>
						</g>
						<g class="st28">
							<defs>
								<path id="SVGID_51_" d="M192.973,239.716H163.11c-1.188,0-2.147,1.005-2.147,2.243v54.014h34.156v-54.014
									C195.12,240.721,194.157,239.716,192.973,239.716"/>
							</defs>
							<clipPath id="SVGID_44_">
								<use xlink:href="#SVGID_51_"  style="overflow:visible;"/>
							</clipPath>
							<g class="st38">
								<defs>
									<rect id="SVGID_53_" x="4.248" y="60.899" width="474.165" height="383.753"/>
								</defs>
								<clipPath id="SVGID_46_">
									<use xlink:href="#SVGID_53_"  style="overflow:visible;"/>
								</clipPath>
								<rect x="150.918" y="229.67" class="st39" width="54.248" height="76.349"/>
							</g>
						</g>
						<g class="st28">
							<defs>
								<path id="SVGID_55_" d="M271.643,251.771h-52.586c-1.014,0-1.836-0.778-1.836-1.74v-24.646c0-0.962,0.822-1.742,1.836-1.742
									h52.586c1.013,0,1.835,0.78,1.835,1.742v24.646C273.477,250.993,272.655,251.771,271.643,251.771"/>
							</defs>
							<clipPath id="SVGID_48_">
								<use xlink:href="#SVGID_55_"  style="overflow:visible;"/>
							</clipPath>
							<g class="st40">
								<defs>
									<rect id="SVGID_57_" x="4.248" y="60.899" width="474.165" height="383.753"/>
								</defs>
								<clipPath id="SVGID_50_">
									<use xlink:href="#SVGID_57_"  style="overflow:visible;"/>
								</clipPath>
								<rect x="207.175" y="213.596" style="clip-path:url(#SVGID_50_);fill:#FBD1D9;" width="76.349" height="48.22"/>
							</g>
						</g>
						<g class="st28">
							<defs>
								<path id="SVGID_59_" d="M385.683,374.33H113.051c-1.279,0-2.317-1.093-2.317-2.441v-3.155c0-1.348,1.038-2.441,3.366-3.49
									h272.632c0.23,1.049,1.268,2.143,1.268,3.49v3.155C388,373.237,386.963,374.33,385.683,374.33"/>
							</defs>
							<use xlink:href="#SVGID_59_"  style="overflow:visible;fill-rule:evenodd;clip-rule:evenodd;fill:#FABAC5;"/>
							<clipPath id="SVGID_52_">
								<use xlink:href="#SVGID_59_"  style="overflow:visible;"/>
							</clipPath>
							<g class="st42">
								<defs>
									<rect id="SVGID_61_" x="4.248" y="60.899" width="474.165" height="383.753"/>
								</defs>
								<clipPath id="SVGID_54_">
									<use xlink:href="#SVGID_61_"  style="overflow:visible;"/>
								</clipPath>
								<rect x="100.688" y="356.248" style="clip-path:url(#SVGID_54_);fill:#F77C93;" width="162.903" height="28.128"/>
							</g>
						</g>
						<g class="st28">
							<defs>
								<path id="SVGID_63_" d="M385.683,390.404H113.051c-1.279,0-2.317-1.093-2.317-2.441v-3.155c0-1.348,1.038-2.441,2.317-2.441
									h272.632c1.279,0,2.317,1.093,2.317,2.441v3.155C388,389.311,386.963,390.404,385.683,390.404"/>
							</defs>
							<use xlink:href="#SVGID_63_"  style="overflow:visible;fill-rule:evenodd;clip-rule:evenodd;fill:#FABAC5;"/>
							<clipPath id="SVGID_56_">
								<use xlink:href="#SVGID_63_"  style="overflow:visible;"/>
							</clipPath>
							<g class="st44">
								<defs>
									<rect id="SVGID_65_" x="4.248" y="60.899" width="474.165" height="383.753"/>
								</defs>
								<clipPath id="SVGID_58_">
									<use xlink:href="#SVGID_65_"  style="overflow:visible;"/>
								</clipPath>
								<rect x="100.688" y="372.321" style="clip-path:url(#SVGID_58_);fill:#F77C93;" width="297.358" height="28.128"/>
							</g>
						</g>
						<g class="st28">
							<defs>
								<path id="SVGID_67_" d="M294.946,358.257H113.374c-2.567,0-4.649-2.186-4.649-4.884v-6.306c0-2.697,2.082-4.884,4.649-4.884
									h181.573c2.569,0,4.65,2.186,4.65,4.884v6.306C299.597,356.071,297.515,358.257,294.946,358.257"/>
							</defs>
							<use xlink:href="#SVGID_67_"  style="overflow:visible;fill-rule:evenodd;clip-rule:evenodd;fill:#FABAC5;"/>
							<clipPath id="SVGID_60_">
								<use xlink:href="#SVGID_67_"  style="overflow:visible;"/>
							</clipPath>
							<g class="st46">
								<defs>
									<rect id="SVGID_69_" x="4.248" y="60.899" width="474.165" height="383.753"/>
								</defs>
								<clipPath id="SVGID_62_">
									<use xlink:href="#SVGID_69_"  style="overflow:visible;"/>
								</clipPath>
								<rect x="98.679" y="332.138" class="st47" width="210.963" height="36.165"/>
							</g>
						</g>
						<g class="st28">
							<defs>
								<path id="SVGID_71_" d="M320.552,358.257h6.308c2.697,0,4.883-2.186,4.883-4.884v-6.306c0-2.697-2.186-4.884-4.883-4.884
									h-6.308c-2.697,0-4.882,2.186-4.882,4.884v6.306C315.67,356.071,317.855,358.257,320.552,358.257"/>
							</defs>
							<use xlink:href="#SVGID_71_"  style="overflow:visible;fill-rule:evenodd;clip-rule:evenodd;fill:#FABAC5;"/>
							<clipPath id="SVGID_64_">
								<use xlink:href="#SVGID_71_"  style="overflow:visible;"/>
							</clipPath>
							<g class="st48">
								<defs>
									<rect id="SVGID_73_" x="4.248" y="60.899" width="474.165" height="383.753"/>
								</defs>
								<clipPath id="SVGID_66_">
									<use xlink:href="#SVGID_73_"  style="overflow:visible;"/>
								</clipPath>
								<rect x="306.674" y="331.088" class="st49" width="36.165" height="36.165"/>
							</g>
						</g>
						<g class="st28">
							<g>
								<defs>
									<polygon id="SVGID_75_" points="4.248,444.652 480.682,446.75 480.682,62.998 4.248,60.899 									"/>
								</defs>
								<clipPath id="SVGID_68_">
									<use xlink:href="#SVGID_75_"  style="overflow:visible;"/>
								</clipPath>
							</g>
						</g>
						<g class="st28">
							<g>
								<defs>
									<polygon id="SVGID_77_" points="4.248,444.652 480.682,446.75 480.682,62.998 4.248,60.899 									"/>
								</defs>
								<clipPath id="SVGID_70_">
									<use xlink:href="#SVGID_77_"  style="overflow:visible;"/>
								</clipPath>
							</g>
						</g>
						<g class="st28">
							<defs>
								<path id="SVGID_79_" d="M360.131,161.447"/>
							</defs>
							<clipPath id="SVGID_72_">
								<use xlink:href="#SVGID_79_"  style="overflow:visible;"/>
							</clipPath>
							<g class="st52">
								<defs>
									<polygon id="SVGID_81_" points="4.248,444.652 480.682,446.75 480.682,62.998 4.248,60.899 									"/>
								</defs>
								<clipPath id="SVGID_74_">
									<use xlink:href="#SVGID_81_"  style="overflow:visible;"/>
								</clipPath>
							</g>
						</g>
					</g>
				</g>
			</g>
		</g>
	</g>
</g>
</svg>
