<?xml version="1.0" encoding="utf-8"?>
<!-- Generator: Adobe Illustrator 24.1.2, SVG Export Plug-In . SVG Version: 6.00 Build 0)  -->
<svg version="1.1" id="Layer_1" xmlns="http://www.w3.org/2000/svg" xmlns:xlink="http://www.w3.org/1999/xlink" x="0px" y="0px"
	 viewBox="0 0 500 500" style="enable-background:new 0 0 500 500;" xml:space="preserve">
<style type="text/css">
	.st0{clip-path:url(#SVGID_2_);enable-background:new    ;}
	.st1{clip-path:url(#SVGID_4_);}
	.st2{clip-path:url(#SVGID_6_);}
	.st3{clip-path:url(#SVGID_8_);fill:#E7ECED;}
	.st4{clip-path:url(#SVGID_10_);}
	.st5{clip-path:url(#SVGID_12_);fill:#CDD1D2;}
	.st6{clip-path:url(#SVGID_14_);}
	.st7{clip-path:url(#SVGID_16_);fill:#78949B;}
	.st8{clip-path:url(#SVGID_18_);}
	.st9{clip-path:url(#SVGID_20_);fill:#78949B;}
	.st10{clip-path:url(#SVGID_22_);}
	.st11{clip-path:url(#SVGID_24_);fill:#78949B;}
	.st12{fill-rule:evenodd;clip-rule:evenodd;fill:#E7ECED;}
	.st13{fill-rule:evenodd;clip-rule:evenodd;fill:#78949B;}
	.st14{fill:#F2EDEF;}
	.st15{fill:#D5D1D4;}
	.st16{fill:#3DC8A6;}
	.st17{fill:#32A387;}
	.st18{fill:#FFFFFF;}
	.st19{fill:#D9DCDE;}
	.st20{fill:#CACDCF;}
	.st21{fill:#D3F2EB;}
	.st22{fill:#E8EBED;}
	.st23{fill:#CDD0D1;}
	.st24{fill:#809399;}
	.st25{fill:#C9CDCE;}
	.st26{fill:#F89F55;}
	.st27{fill:#FEF6ED;}
	.st28{clip-path:url(#SVGID_26_);}
	.st29{clip-path:url(#SVGID_28_);fill:#FEF3F5;}
	.st30{clip-path:url(#SVGID_30_);}
	.st31{clip-path:url(#SVGID_32_);fill:#FBD1D9;}
	.st32{enable-background:new    ;}
	.st33{clip-path:url(#SVGID_34_);}
	.st34{clip-path:url(#SVGID_36_);}
	.st35{clip-path:url(#SVGID_38_);fill:#F66E87;}
	.st36{clip-path:url(#SVGID_40_);}
	.st37{clip-path:url(#SVGID_42_);fill:#FFFFFF;}
	.st38{clip-path:url(#SVGID_44_);}
	.st39{clip-path:url(#SVGID_46_);fill:#F66E87;}
	.st40{clip-path:url(#SVGID_48_);}
	.st41{clip-path:url(#SVGID_50_);fill:#F892A3;}
	.st42{clip-path:url(#SVGID_52_);}
	.st43{clip-path:url(#SVGID_54_);fill:#F66E87;}
	.st44{clip-path:url(#SVGID_56_);}
	.st45{clip-path:url(#SVGID_58_);fill:#FBD1D9;}
	.st46{clip-path:url(#SVGID_60_);}
	.st47{clip-path:url(#SVGID_62_);fill:#F77C93;}
	.st48{clip-path:url(#SVGID_64_);}
	.st49{clip-path:url(#SVGID_66_);fill:#F77C93;}
	.st50{clip-path:url(#SVGID_68_);}
	.st51{clip-path:url(#SVGID_70_);fill:#F77C93;}
	.st52{clip-path:url(#SVGID_72_);}
	.st53{clip-path:url(#SVGID_74_);fill:#F77C93;}
	.st54{clip-path:url(#SVGID_80_);}
</style>
<g>
	<g>
		<defs>
			<path id="SVGID_9_" d="M-1871.255,5778.224c0.621,4.002-2.119,7.75-6.122,8.371l-50.627,7.862l6.072,1.83l46.654,2.028
				c4.047,0.177,7.467-2.961,7.646-7.008l3.929-90.479l-20.532-6.183L-1871.255,5778.224z"/>
		</defs>
		<clipPath id="SVGID_2_">
			<use xlink:href="#SVGID_9_"  style="overflow:visible;"/>
		</clipPath>
		<g style="clip-path:url(#SVGID_2_);">
			<defs>
				<rect id="SVGID_11_" x="-3364.696" y="-7918.732" width="3535.86" height="16569.432"/>
			</defs>
			<clipPath id="SVGID_4_">
				<use xlink:href="#SVGID_11_"  style="overflow:visible;"/>
			</clipPath>
		</g>
	</g>
	<g>
		<defs>
			<path id="SVGID_13_" d="M-1944.245,5721.183l40.945-6.357c3.322-0.518,5.601-3.631,5.085-6.958
				c-0.518-3.322-3.632-5.601-6.956-5.085l-40.945,6.36c-3.325,0.516-5.603,3.629-5.085,6.956
				C-1950.686,5719.422-1947.57,5721.701-1944.245,5721.183"/>
		</defs>
		<clipPath id="SVGID_6_">
			<use xlink:href="#SVGID_13_"  style="overflow:visible;"/>
		</clipPath>
		<g class="st2">
			<defs>
				<rect id="SVGID_15_" x="-3364.696" y="-7918.732" width="3535.86" height="16569.432"/>
			</defs>
			<clipPath id="SVGID_8_">
				<use xlink:href="#SVGID_15_"  style="overflow:visible;"/>
			</clipPath>
		</g>
	</g>
	<g>
		<defs>
			<path id="SVGID_17_" d="M-1940.118,5747.761l40.945-6.359c3.325-0.516,5.601-3.629,5.085-6.957
				c-0.516-3.325-3.629-5.601-6.956-5.085l-40.945,6.359c-3.325,0.516-5.601,3.629-5.085,6.957
				C-1946.559,5745.998-1943.443,5748.276-1940.118,5747.761"/>
		</defs>
		<clipPath id="SVGID_10_">
			<use xlink:href="#SVGID_17_"  style="overflow:visible;"/>
		</clipPath>
		<g class="st4">
			<defs>
				<rect id="SVGID_19_" x="-3364.696" y="-7918.732" width="3535.86" height="16569.432"/>
			</defs>
			<clipPath id="SVGID_12_">
				<use xlink:href="#SVGID_19_"  style="overflow:visible;"/>
			</clipPath>
		</g>
	</g>
	<g>
		<defs>
			<path id="SVGID_21_" d="M-1935.991,5774.337l40.945-6.357c3.325-0.518,5.603-3.631,5.085-6.956
				c-0.516-3.325-3.629-5.604-6.956-5.085l-40.945,6.357c-3.322,0.518-5.601,3.629-5.085,6.956
				C-1942.43,5772.576-1939.316,5774.855-1935.991,5774.337"/>
		</defs>
		<clipPath id="SVGID_14_">
			<use xlink:href="#SVGID_21_"  style="overflow:visible;"/>
		</clipPath>
		<g class="st6">
			<defs>
				<rect id="SVGID_23_" x="-3364.696" y="-7918.732" width="3535.86" height="16569.432"/>
			</defs>
			<clipPath id="SVGID_16_">
				<use xlink:href="#SVGID_23_"  style="overflow:visible;"/>
			</clipPath>
		</g>
	</g>
</g>
<g>
	<polygon class="st22" points="83.001,151.974 83.001,321.017 192.088,234.263 	"/>
	<polygon class="st22" points="416.998,321.018 416.998,349.318 416.999,349.308 416.999,151.974 307.911,234.264 	"/>
	<path class="st22" d="M269.234,263.44c-11.772,8.88-26.697,8.88-38.468,0l-19.914-15.022L87.657,369.76
		c0.088,0.138,0.153,0.291,0.243,0.428c1.24,1.89,2.649,3.664,4.275,5.221c0.033,0.031,0.072,0.055,0.105,0.086
		c1.555,1.474,3.307,2.725,5.153,3.833c0.476,0.287,0.965,0.532,1.458,0.792c1.514,0.795,3.116,1.434,4.773,1.956
		c0.601,0.189,1.176,0.406,1.794,0.556c2.22,0.543,4.516,0.904,6.907,0.904h4.864h78.572h108.394h78.574h4.865
		c2.391,0,4.687-0.361,6.907-0.904c0.617-0.15,1.193-0.367,1.794-0.556c1.658-0.522,3.259-1.161,4.774-1.957
		c0.494-0.259,0.979-0.504,1.455-0.79c1.846-1.108,3.601-2.36,5.154-3.834c0.033-0.031,0.072-0.055,0.105-0.086
		c1.741-1.666,3.281-3.542,4.577-5.588c0-0.001,0.001-0.001,0.001-0.002c-24.289-23.925-83.445-82.191-123.255-121.401
		L269.234,263.44z"/>
	<path class="st25" d="M92.175,375.409c-1.626-1.556-3.034-3.331-4.275-5.221C89.147,372.075,90.541,373.854,92.175,375.409z"/>
	<path class="st24" d="M416.513,146.13l-147.279,91.871c-11.772,7.344-26.697,7.344-38.468,0L83.487,146.13
		c-0.262,1.907-0.485,3.833-0.486,5.83c0,0.004-0.001,0.008-0.001,0.012l0.001,0.001l109.087,82.289L83.001,321.017v28.291v4.866
		c0,5.766,1.772,11.063,4.656,15.586l123.195-121.342l19.914,15.022c11.772,8.88,26.697,8.88,38.468,0l19.914-15.022
		c39.81,39.21,98.966,97.476,123.255,121.401c2.872-4.538,4.595-9.878,4.595-15.645v-4.856v-28.3l-109.087-86.754l109.088-82.29
		l0.001-0.001c0-0.004-0.001-0.008-0.001-0.012C416.998,149.964,416.775,148.037,416.513,146.13z"/>
	<path class="st25" d="M87.598,369.819c0.085,0.135,0.215,0.236,0.302,0.369c-0.09-0.136-0.155-0.289-0.243-0.428L87.598,369.819z"
		/>
	<path class="st22" d="M230.766,238.002c11.772,7.344,26.697,7.344,38.468,0l147.279-91.871c0.262,1.907,0.485,3.833,0.486,5.83
		v-1.269c0-1.568-0.257-3.065-0.461-4.577l0.462-0.289c0-16.216-13.148-29.363-29.365-29.363h-4.865H117.23h-4.865
		C96.147,116.463,83,129.61,83,145.826l0.462,0.289c-0.204,1.512-0.461,3.009-0.461,4.577v1.269c0.001-1.997,0.224-3.924,0.486-5.83
		L230.766,238.002z"/>
</g>
</svg>
