<?xml version="1.0" encoding="utf-8"?>
<!-- Generator: Adobe Illustrator 24.1.2, SVG Export Plug-In . SVG Version: 6.00 Build 0)  -->
<svg version="1.1" id="Layer_1" xmlns="http://www.w3.org/2000/svg" xmlns:xlink="http://www.w3.org/1999/xlink" x="0px" y="0px"
	 viewBox="0 0 500 500" style="enable-background:new 0 0 500 500;" xml:space="preserve">
<style type="text/css">
	.st0{clip-path:url(#SVGID_2_);enable-background:new    ;}
	.st1{clip-path:url(#SVGID_4_);}
	.st2{clip-path:url(#SVGID_6_);}
	.st3{clip-path:url(#SVGID_8_);fill:#E7ECED;}
	.st4{clip-path:url(#SVGID_10_);}
	.st5{clip-path:url(#SVGID_12_);fill:#CDD1D2;}
	.st6{clip-path:url(#SVGID_14_);}
	.st7{clip-path:url(#SVGID_16_);fill:#78949B;}
	.st8{clip-path:url(#SVGID_18_);}
	.st9{clip-path:url(#SVGID_20_);fill:#78949B;}
	.st10{clip-path:url(#SVGID_22_);}
	.st11{clip-path:url(#SVGID_24_);fill:#78949B;}
	.st12{fill-rule:evenodd;clip-rule:evenodd;fill:#E7ECED;}
	.st13{fill-rule:evenodd;clip-rule:evenodd;fill:#78949B;}
	.st14{fill:#F2EDEF;}
	.st15{fill:#D5D1D4;}
	.st16{fill:#3DC8A6;}
	.st17{fill:#32A387;}
	.st18{fill:#FFFFFF;}
	.st19{fill:#D9DCDE;}
	.st20{fill:#CACDCF;}
	.st21{fill:#D3F2EB;}
	.st22{fill:#E8EBED;}
	.st23{fill:#CDD0D1;}
	.st24{fill:#809399;}
	.st25{fill:#C9CDCE;}
	.st26{fill:#F89F55;}
	.st27{fill:#FEF6ED;}
	.st28{clip-path:url(#SVGID_26_);}
	.st29{clip-path:url(#SVGID_28_);fill:#FEF3F5;}
	.st30{clip-path:url(#SVGID_30_);}
	.st31{clip-path:url(#SVGID_32_);fill:#FBD1D9;}
	.st32{enable-background:new    ;}
	.st33{clip-path:url(#SVGID_34_);}
	.st34{clip-path:url(#SVGID_36_);}
	.st35{clip-path:url(#SVGID_38_);fill:#F66E87;}
	.st36{clip-path:url(#SVGID_40_);}
	.st37{clip-path:url(#SVGID_42_);fill:#FFFFFF;}
	.st38{clip-path:url(#SVGID_44_);}
	.st39{clip-path:url(#SVGID_46_);fill:#F66E87;}
	.st40{clip-path:url(#SVGID_48_);}
	.st41{clip-path:url(#SVGID_50_);fill:#F892A3;}
	.st42{clip-path:url(#SVGID_52_);}
	.st43{clip-path:url(#SVGID_54_);fill:#F66E87;}
	.st44{clip-path:url(#SVGID_56_);}
	.st45{clip-path:url(#SVGID_58_);fill:#FBD1D9;}
	.st46{clip-path:url(#SVGID_60_);}
	.st47{clip-path:url(#SVGID_62_);fill:#F77C93;}
	.st48{clip-path:url(#SVGID_64_);}
	.st49{clip-path:url(#SVGID_66_);fill:#F77C93;}
	.st50{clip-path:url(#SVGID_68_);}
	.st51{clip-path:url(#SVGID_70_);fill:#F77C93;}
	.st52{clip-path:url(#SVGID_72_);}
	.st53{clip-path:url(#SVGID_74_);fill:#F77C93;}
	.st54{clip-path:url(#SVGID_80_);}
</style>
<g>
	<g>
		<defs>
			<path id="SVGID_9_" d="M-131.255,5778.224c0.621,4.002-2.119,7.75-6.121,8.371l-50.627,7.862l6.072,1.83l46.654,2.028
				c4.047,0.177,7.467-2.961,7.646-7.008l3.929-90.479l-20.533-6.183L-131.255,5778.224z"/>
		</defs>
		<clipPath id="SVGID_2_">
			<use xlink:href="#SVGID_9_"  style="overflow:visible;"/>
		</clipPath>
		<g style="clip-path:url(#SVGID_2_);">
			<defs>
				<rect id="SVGID_11_" x="-1624.696" y="-7918.732" width="3535.86" height="16569.432"/>
			</defs>
			<clipPath id="SVGID_4_">
				<use xlink:href="#SVGID_11_"  style="overflow:visible;"/>
			</clipPath>
		</g>
	</g>
	<g>
		<defs>
			<path id="SVGID_13_" d="M-204.245,5721.183l40.945-6.357c3.322-0.518,5.601-3.631,5.085-6.958
				c-0.518-3.322-3.632-5.601-6.956-5.085l-40.945,6.36c-3.325,0.516-5.603,3.629-5.085,6.956
				C-210.686,5719.422-207.57,5721.701-204.245,5721.183"/>
		</defs>
		<clipPath id="SVGID_6_">
			<use xlink:href="#SVGID_13_"  style="overflow:visible;"/>
		</clipPath>
		<g class="st2">
			<defs>
				<rect id="SVGID_15_" x="-1624.696" y="-7918.732" width="3535.86" height="16569.432"/>
			</defs>
			<clipPath id="SVGID_8_">
				<use xlink:href="#SVGID_15_"  style="overflow:visible;"/>
			</clipPath>
		</g>
	</g>
	<g>
		<defs>
			<path id="SVGID_17_" d="M-200.118,5747.761l40.945-6.359c3.325-0.516,5.601-3.629,5.085-6.957
				c-0.516-3.325-3.629-5.601-6.956-5.085l-40.945,6.359c-3.325,0.516-5.601,3.629-5.085,6.957
				C-206.559,5745.998-203.443,5748.276-200.118,5747.761"/>
		</defs>
		<clipPath id="SVGID_10_">
			<use xlink:href="#SVGID_17_"  style="overflow:visible;"/>
		</clipPath>
		<g class="st4">
			<defs>
				<rect id="SVGID_19_" x="-1624.696" y="-7918.732" width="3535.86" height="16569.432"/>
			</defs>
			<clipPath id="SVGID_12_">
				<use xlink:href="#SVGID_19_"  style="overflow:visible;"/>
			</clipPath>
		</g>
	</g>
	<g>
		<defs>
			<path id="SVGID_21_" d="M-195.991,5774.337l40.945-6.357c3.325-0.518,5.603-3.631,5.085-6.956
				c-0.516-3.325-3.629-5.604-6.956-5.085l-40.945,6.357c-3.322,0.518-5.601,3.629-5.085,6.956
				C-202.43,5772.576-199.316,5774.855-195.991,5774.337"/>
		</defs>
		<clipPath id="SVGID_14_">
			<use xlink:href="#SVGID_21_"  style="overflow:visible;"/>
		</clipPath>
		<g class="st6">
			<defs>
				<rect id="SVGID_23_" x="-1624.696" y="-7918.732" width="3535.86" height="16569.432"/>
			</defs>
			<clipPath id="SVGID_16_">
				<use xlink:href="#SVGID_23_"  style="overflow:visible;"/>
			</clipPath>
		</g>
	</g>
</g>
<g>
	<path class="st19" d="M209.839,282.146l30.682-30.682L124.495,367.486c-2.75,2.74-6.254,4.079-10.028,4.106
		c-3.774-0.026-7.28-1.367-10.029-4.107c-2.742-2.75-4.081-6.254-4.107-10.029c0.026-3.774,1.366-7.278,4.106-10.028
		c9.966-9.966,9.965-26.128,0-36.093c-9.967-9.967-26.127-9.966-36.093,0l-0.002-0.002c-25.42,25.558-25.422,66.69-0.001,92.249
		c25.557,25.419,66.693,25.421,92.249-0.001l85.342-85.342c-2.909-8.054-7.57-15.611-14.028-22.069S217.889,285.052,209.839,282.146
		z"/>
	<path class="st20" d="M240.522,251.463L240.522,251.463l-30.683,30.683c8.05,2.906,15.607,7.567,22.065,14.025
		s11.119,14.015,14.028,22.069l30.682-30.682c-2.909-8.054-7.569-15.61-14.028-22.069
		C256.129,259.031,248.574,254.37,240.522,251.463z"/>
	<path class="st16" d="M387.365,140.709c-70.604-70.604-177.729-82.147-260.433-34.884c-11.712,6.692-10.885,23.638,1.202,29.621
		c5.658,2.802,10.965,6.555,15.69,11.28c8.582,8.582,13.998,19.099,16.332,30.146c0.568,2.69,1.867,5.018,3.515,7.04
		C249.4,112.658,349.842,103.187,387.365,140.709z"/>
	<path class="st16" d="M387.365,140.709c-11.527-11.527-80.405,29.404-161.069,105.602c1.831,1.295,3.84,2.361,6.145,2.847
		c2.733,0.577,5.432,1.35,8.079,2.305l0.001-0.001c8.052,2.907,15.607,7.568,22.064,14.025c6.459,6.459,11.119,14.015,14.028,22.069
		c0.956,2.646,1.728,5.347,2.305,8.079c0.486,2.303,1.551,4.311,2.845,6.141C357.962,221.114,398.892,152.236,387.365,140.709z"/>
	<path class="st21" d="M387.365,140.709c-37.523-37.523-137.965-28.052-223.694,43.203c2.355,2.891,5.544,5.052,9.388,5.865
		c11.048,2.333,21.566,7.749,30.147,16.331s13.998,19.099,16.33,30.145c0.894,4.231,3.403,7.683,6.76,10.058
		C306.96,170.114,375.838,129.182,387.365,140.709z"/>
	<path class="st16" d="M422.252,401.147c47.262-82.704,35.719-189.832-34.887-260.437c37.523,37.523,28.053,137.968-43.204,223.695
		c2.024,1.649,4.354,2.95,7.045,3.516c11.048,2.334,21.564,7.751,30.144,16.331c4.724,4.724,8.478,10.032,11.281,15.693
		C398.614,412.031,415.56,412.859,422.252,401.147z"/>
	<path class="st21" d="M387.365,140.709c11.527,11.527-29.404,80.404-105.601,161.068c2.376,3.359,5.829,5.871,10.058,6.764
		c11.048,2.333,21.566,7.749,30.147,16.331c8.58,8.58,13.996,19.097,16.33,30.145c0.813,3.844,2.972,7.033,5.861,9.388
		C415.418,278.677,424.888,178.232,387.365,140.709z"/>
</g>
<g>
	<g>
		<g>
			<defs>
				<path id="SVGID_25_" d="M997.695,997.56H693.039c-4.643,0-8.406-3.739-8.406-8.35v-322.85c0-4.612,3.763-8.35,8.406-8.35
					h304.656c4.642,0,8.406,3.739,10.675,10.449v322.85C1006.101,993.821,1002.337,997.56,997.695,997.56"/>
			</defs>
			<clipPath id="SVGID_18_">
				<use xlink:href="#SVGID_25_"  style="overflow:visible;"/>
			</clipPath>
			<g class="st8">
				<defs>
					<rect id="SVGID_27_" x="-1420.983" y="-14637.843" width="2893.213" height="19372.469"/>
				</defs>
				<clipPath id="SVGID_20_">
					<use xlink:href="#SVGID_27_"  style="overflow:visible;"/>
				</clipPath>
			</g>
		</g>
		<g>
			<defs>
				<path id="SVGID_29_" d="M999.472,656H691.263c-3.66,0-6.63,2.949-6.63,6.588v224.467l323.737,2.099V664.685
					C1006.101,658.949,1003.133,656,999.472,656"/>
			</defs>
			<clipPath id="SVGID_22_">
				<use xlink:href="#SVGID_29_"  style="overflow:visible;"/>
			</clipPath>
			<g class="st10">
				<defs>
					<rect id="SVGID_31_" x="-1420.983" y="-14637.843" width="2893.213" height="19372.469"/>
				</defs>
				<clipPath id="SVGID_24_">
					<use xlink:href="#SVGID_31_"  style="overflow:visible;"/>
				</clipPath>
			</g>
		</g>
	</g>
</g>
</svg>
