<?xml version="1.0" encoding="utf-8"?>
<!-- Generator: Adobe Illustrator 24.1.2, SVG Export Plug-In . SVG Version: 6.00 Build 0)  -->
<svg version="1.1" id="Layer_1" xmlns="http://www.w3.org/2000/svg" xmlns:xlink="http://www.w3.org/1999/xlink" x="0px" y="0px"
	 viewBox="0 0 500 500" style="enable-background:new 0 0 500 500;" xml:space="preserve">
<style type="text/css">
	.st0{clip-path:url(#SVGID_2_);enable-background:new    ;}
	.st1{clip-path:url(#SVGID_4_);}
	.st2{clip-path:url(#SVGID_6_);}
	.st3{clip-path:url(#SVGID_8_);fill:#E7ECED;}
	.st4{clip-path:url(#SVGID_10_);}
	.st5{clip-path:url(#SVGID_12_);fill:#CDD1D2;}
	.st6{clip-path:url(#SVGID_14_);}
	.st7{clip-path:url(#SVGID_16_);fill:#78949B;}
	.st8{clip-path:url(#SVGID_18_);}
	.st9{clip-path:url(#SVGID_20_);fill:#78949B;}
	.st10{clip-path:url(#SVGID_22_);}
	.st11{clip-path:url(#SVGID_24_);fill:#78949B;}
	.st12{fill-rule:evenodd;clip-rule:evenodd;fill:#E7ECED;}
	.st13{fill-rule:evenodd;clip-rule:evenodd;fill:#78949B;}
	.st14{fill:#F2EDEF;}
	.st15{fill:#D5D1D4;}
	.st16{fill:#3DC8A6;}
	.st17{fill:#32A387;}
	.st18{fill:#FFFFFF;}
	.st19{fill:#D9DCDE;}
	.st20{fill:#CACDCF;}
	.st21{fill:#D3F2EB;}
	.st22{fill:#E8EBED;}
	.st23{fill:#CDD0D1;}
	.st24{fill:#809399;}
	.st25{fill:#C9CDCE;}
	.st26{fill:#F89F55;}
	.st27{fill:#FEF6ED;}
	.st28{clip-path:url(#SVGID_26_);}
	.st29{clip-path:url(#SVGID_28_);fill:#FEF3F5;}
	.st30{clip-path:url(#SVGID_30_);}
	.st31{clip-path:url(#SVGID_32_);fill:#FBD1D9;}
	.st32{enable-background:new    ;}
	.st33{clip-path:url(#SVGID_34_);}
	.st34{clip-path:url(#SVGID_36_);}
	.st35{clip-path:url(#SVGID_38_);fill:#F66E87;}
	.st36{clip-path:url(#SVGID_40_);}
	.st37{clip-path:url(#SVGID_42_);fill:#FFFFFF;}
	.st38{clip-path:url(#SVGID_44_);}
	.st39{clip-path:url(#SVGID_46_);fill:#F66E87;}
	.st40{clip-path:url(#SVGID_48_);}
	.st41{clip-path:url(#SVGID_50_);fill:#F892A3;}
	.st42{clip-path:url(#SVGID_52_);}
	.st43{clip-path:url(#SVGID_54_);fill:#F66E87;}
	.st44{clip-path:url(#SVGID_56_);}
	.st45{clip-path:url(#SVGID_58_);fill:#FBD1D9;}
	.st46{clip-path:url(#SVGID_60_);}
	.st47{clip-path:url(#SVGID_62_);fill:#F77C93;}
	.st48{clip-path:url(#SVGID_64_);}
	.st49{clip-path:url(#SVGID_66_);fill:#F77C93;}
	.st50{clip-path:url(#SVGID_68_);}
	.st51{clip-path:url(#SVGID_70_);fill:#F77C93;}
	.st52{clip-path:url(#SVGID_72_);}
	.st53{clip-path:url(#SVGID_74_);fill:#F77C93;}
	.st54{clip-path:url(#SVGID_80_);}
</style>
<g>
	<g>
		<defs>
			<path id="SVGID_9_" d="M-131.255,5205.224c0.621,4.002-2.119,7.75-6.121,8.371l-50.627,7.862l6.072,1.83l46.654,2.028
				c4.047,0.177,7.467-2.961,7.646-7.008l3.929-90.479l-20.533-6.183L-131.255,5205.224z"/>
		</defs>
		<clipPath id="SVGID_2_">
			<use xlink:href="#SVGID_9_"  style="overflow:visible;"/>
		</clipPath>
		<g style="clip-path:url(#SVGID_2_);">
			<defs>
				<rect id="SVGID_11_" x="-1624.696" y="-8491.732" width="3535.86" height="16569.432"/>
			</defs>
			<clipPath id="SVGID_4_">
				<use xlink:href="#SVGID_11_"  style="overflow:visible;"/>
			</clipPath>
		</g>
	</g>
	<g>
		<defs>
			<path id="SVGID_13_" d="M-204.245,5148.183l40.945-6.357c3.322-0.518,5.601-3.631,5.085-6.958
				c-0.518-3.322-3.632-5.601-6.956-5.085l-40.945,6.36c-3.325,0.516-5.603,3.629-5.085,6.956
				C-210.686,5146.422-207.57,5148.701-204.245,5148.183"/>
		</defs>
		<clipPath id="SVGID_6_">
			<use xlink:href="#SVGID_13_"  style="overflow:visible;"/>
		</clipPath>
		<g class="st2">
			<defs>
				<rect id="SVGID_15_" x="-1624.696" y="-8491.732" width="3535.86" height="16569.432"/>
			</defs>
			<clipPath id="SVGID_8_">
				<use xlink:href="#SVGID_15_"  style="overflow:visible;"/>
			</clipPath>
		</g>
	</g>
	<g>
		<defs>
			<path id="SVGID_17_" d="M-200.118,5174.761l40.945-6.359c3.325-0.516,5.601-3.629,5.085-6.957
				c-0.516-3.325-3.629-5.601-6.956-5.085l-40.945,6.359c-3.325,0.516-5.601,3.629-5.085,6.957
				C-206.559,5172.998-203.443,5175.276-200.118,5174.761"/>
		</defs>
		<clipPath id="SVGID_10_">
			<use xlink:href="#SVGID_17_"  style="overflow:visible;"/>
		</clipPath>
		<g class="st4">
			<defs>
				<rect id="SVGID_19_" x="-1624.696" y="-8491.732" width="3535.86" height="16569.432"/>
			</defs>
			<clipPath id="SVGID_12_">
				<use xlink:href="#SVGID_19_"  style="overflow:visible;"/>
			</clipPath>
		</g>
	</g>
	<g>
		<defs>
			<path id="SVGID_21_" d="M-195.991,5201.337l40.945-6.357c3.325-0.518,5.603-3.631,5.085-6.956
				c-0.516-3.325-3.629-5.604-6.956-5.085l-40.945,6.357c-3.322,0.518-5.601,3.629-5.085,6.956
				C-202.43,5199.576-199.316,5201.855-195.991,5201.337"/>
		</defs>
		<clipPath id="SVGID_14_">
			<use xlink:href="#SVGID_21_"  style="overflow:visible;"/>
		</clipPath>
		<g class="st6">
			<defs>
				<rect id="SVGID_23_" x="-1624.696" y="-8491.732" width="3535.86" height="16569.432"/>
			</defs>
			<clipPath id="SVGID_16_">
				<use xlink:href="#SVGID_23_"  style="overflow:visible;"/>
			</clipPath>
		</g>
	</g>
</g>
<g>
	<g>
		<g>
			<path class="st26" d="M95.225,421L95.225,421c-20.688,0-37.459-16.771-37.459-37.459V158.571h74.919v224.969
				C132.684,404.229,115.913,421,95.225,421z"/>
			<path class="st27" d="M95.225,421L95.225,421c20.688,0,37.459-16.771,37.459-37.459V79h309.55v304.541
				c0,20.688-16.771,37.459-37.459,37.459h0H95.225z"/>
		</g>
		<g>
			<circle class="st26" cx="220.594" cy="165.551" r="59.209"/>
			<g>
				<path class="st18" d="M199.519,179.798l21.075-21.075l21.075,21.075l6.55-6.549l-18.94-18.94
					c1.074-0.668,2.075-1.441,2.96-2.328c2.973-2.966,4.826-7.112,4.823-11.645c0.003-4.533-1.85-8.679-4.823-11.645
					c-2.966-2.973-7.112-4.826-11.645-4.824c-4.533-0.002-8.679,1.851-11.645,4.824c-2.973,2.966-4.826,7.112-4.823,11.645
					c-0.003,4.533,1.851,8.679,4.823,11.645c0.885,0.887,1.886,1.66,2.96,2.328l-18.939,18.94L199.519,179.798z M215.499,135.241
					c1.319-1.311,3.091-2.108,5.096-2.111c2.005,0.002,3.777,0.799,5.095,2.111c1.311,1.319,2.108,3.091,2.111,5.096
					c-0.003,2.005-0.8,3.777-2.111,5.096c-1.319,1.311-3.091,2.108-5.095,2.111c-2.005-0.002-3.777-0.799-5.096-2.111
					c-1.311-1.319-2.108-3.091-2.111-5.095C213.391,138.332,214.188,136.56,215.499,135.241z"/>
				<polygon class="st18" points="199.52,179.798 199.519,179.798 199.519,179.798 				"/>
				<polygon class="st18" points="192.97,196.857 199.519,203.407 220.594,182.332 241.669,203.407 248.219,196.858 
					220.594,169.233 				"/>
				<polygon class="st18" points="199.52,203.407 199.519,203.407 199.519,203.407 				"/>
			</g>
		</g>
		<g>
			<g>
				<path class="st26" d="M415.965,264.568H159.555c-2.634,0-4.77-2.135-4.77-4.77c0-2.635,2.136-4.77,4.77-4.77h256.411
					c2.634,0,4.77,2.135,4.77,4.77C420.736,262.433,418.6,264.568,415.965,264.568z"/>
				<path class="st26" d="M415.965,302.418H159.555c-2.634,0-4.77-2.135-4.77-4.77c0-2.635,2.136-4.77,4.77-4.77h256.411
					c2.634,0,4.77,2.135,4.77,4.77C420.736,300.283,418.6,302.418,415.965,302.418z"/>
				<path class="st26" d="M415.965,340.268H159.555c-2.634,0-4.77-2.135-4.77-4.77c0-2.635,2.136-4.77,4.77-4.77h256.411
					c2.634,0,4.77,2.135,4.77,4.77C420.736,338.133,418.6,340.268,415.965,340.268z"/>
				<path class="st26" d="M415.965,378.118H159.555c-2.634,0-4.77-2.135-4.77-4.77s2.136-4.77,4.77-4.77h256.411
					c2.634,0,4.77,2.135,4.77,4.77S418.6,378.118,415.965,378.118z"/>
			</g>
			<g>
				<path class="st26" d="M415.965,112.18h-89.311c-2.634,0-4.77-2.135-4.77-4.77s2.136-4.77,4.77-4.77h89.311
					c2.634,0,4.77,2.135,4.77,4.77S418.6,112.18,415.965,112.18z"/>
				<path class="st26" d="M415.965,150.03h-89.311c-2.634,0-4.77-2.135-4.77-4.77c0-2.635,2.136-4.77,4.77-4.77h89.311
					c2.634,0,4.77,2.135,4.77,4.77C420.736,147.895,418.6,150.03,415.965,150.03z"/>
				<path class="st26" d="M415.965,187.88h-89.311c-2.634,0-4.77-2.135-4.77-4.77c0-2.635,2.136-4.77,4.77-4.77h89.311
					c2.634,0,4.77,2.135,4.77,4.77C420.736,185.745,418.6,187.88,415.965,187.88z"/>
				<path class="st26" d="M415.965,225.732h-89.311c-2.634,0-4.77-2.135-4.77-4.77c0-2.635,2.136-4.77,4.77-4.77h89.311
					c2.634,0,4.77,2.135,4.77,4.77C420.736,223.596,418.6,225.732,415.965,225.732z"/>
			</g>
		</g>
	</g>
</g>
<g>
	<g>
		<g>
			<defs>
				<path id="SVGID_25_" d="M997.695,424.56H693.039c-4.643,0-8.406-3.739-8.406-8.35V93.36c0-4.612,3.763-8.35,8.406-8.35h304.656
					c4.642,0,8.406,3.739,10.675,10.449v322.85C1006.101,420.821,1002.337,424.56,997.695,424.56"/>
			</defs>
			<clipPath id="SVGID_18_">
				<use xlink:href="#SVGID_25_"  style="overflow:visible;"/>
			</clipPath>
			<g class="st8">
				<defs>
					<rect id="SVGID_27_" x="-1420.983" y="-15210.843" width="2893.213" height="19372.469"/>
				</defs>
				<clipPath id="SVGID_20_">
					<use xlink:href="#SVGID_27_"  style="overflow:visible;"/>
				</clipPath>
			</g>
		</g>
		<g>
			<defs>
				<path id="SVGID_29_" d="M999.472,83H691.263c-3.66,0-6.63,2.949-6.63,6.588v224.467l323.737,2.099V91.685
					C1006.101,85.949,1003.133,83,999.472,83"/>
			</defs>
			<clipPath id="SVGID_22_">
				<use xlink:href="#SVGID_29_"  style="overflow:visible;"/>
			</clipPath>
			<g class="st10">
				<defs>
					<rect id="SVGID_31_" x="-1420.983" y="-15210.843" width="2893.213" height="19372.469"/>
				</defs>
				<clipPath id="SVGID_24_">
					<use xlink:href="#SVGID_31_"  style="overflow:visible;"/>
				</clipPath>
			</g>
		</g>
	</g>
</g>
</svg>
