<?xml version="1.0" encoding="UTF-8"?>
<svg width="169px" height="33px" viewBox="0 0 169 33" version="1.1" xmlns="http://www.w3.org/2000/svg" xmlns:xlink="http://www.w3.org/1999/xlink">
    <title>Group 9</title>
    <g id="Symbols" stroke="none" stroke-width="1" fill="none" fill-rule="evenodd">
        <g id="footer" transform="translate(-106.000000, -806.000000)" fill="#FFFFFF">
            <g id="Group-9" transform="translate(106.000000, 806.000000)">
                <g id="Group">
                    <path d="M11.3568076,18.6863203 L22.7150971,29.5460174 L20.0566794,32.0880707 L11.3568076,23.7690099 L2.65841765,32.0880707 L-2.13766771e-13,29.5460174 L11.3568076,18.6863203 Z M11.7892199,-4.29848524e-13 C15.6904116,-4.29848524e-13 18.8638154,2.99354472 18.8638154,6.67216471 C18.8638154,9.22917015 17.3317644,11.4547293 15.088033,12.5749678 L22.7150971,20.0520622 L20.0566794,22.6575536 L11.3568076,14.1323394 L2.65841765,22.6575536 L-2.13766771e-13,20.0520622 L7.94019285,12.2688099 C6.00099172,11.0774352 4.71617612,9.01377945 4.71617612,6.67216471 C4.71617612,2.99354472 7.88957991,-4.29848524e-13 11.7892199,-4.29848524e-13 Z M11.7892199,3.71375206 C10.0605295,3.71375206 8.65305896,5.04145135 8.65305896,6.67216471 C8.65305896,8.3043419 10.0605295,9.63057736 11.7892199,9.63057736 C13.519462,9.63057736 14.9253808,8.3043419 14.9253808,6.67216471 C14.9253808,5.04145135 13.519462,3.71375206 11.7892199,3.71375206 Z" id="Combined-Shape"></path>
                </g>
                <path d="M68.7351633,10.0093449 C70.7138639,10.0078743 72.4735311,10.4796183 73.9253676,11.4540644 L73.9253676,11.4540644 L74.2052625,11.6484644 C75.490128,12.5766905 76.4757258,13.7981404 77.1235517,15.264871 C77.8102511,16.8113067 78.1491609,18.5066365 78.1491609,20.3199023 C78.1491609,22.1523327 77.8102511,23.8638788 77.1250316,25.4206338 C76.4309324,27.0024503 75.3490849,28.2997462 73.9253676,29.2506051 C72.4735311,30.2250512 70.7138639,30.6967951 68.7351633,30.6953245 C66.7372232,30.6967951 64.9716362,30.2397932 63.5183198,29.2889343 C62.0901626,28.3616626 61.0053551,27.0776345 60.311256,25.5061374 C59.6230766,23.9567534 59.2841668,22.2393105 59.2856419,20.3847671 C59.2841668,18.5095849 59.6215966,16.7788743 60.309776,15.2162224 C61.0038752,13.634406 62.0886826,12.3444811 63.5168398,11.4157352 C64.9716362,10.4648763 66.7372232,10.0078743 68.7351633,10.0093449 Z M84.3669526,10.6766346 L88.9450389,23.6270043 L93.5231252,10.6766346 L98.3600741,10.6766346 L90.8457882,30.6953245 L87.0122953,30.6953245 L79.4965551,10.6766346 L84.3669526,10.6766346 Z M107.559999,10.0093449 C108.935216,10.0078848 110.213545,10.2968484 111.351606,10.8836214 C112.502681,11.4748173 113.428169,12.3652969 114.06878,13.5019854 C114.719513,14.6475196 115.033311,15.987662 115.031865,17.4604917 C115.031865,18.0575849 114.946547,18.7637765 114.788925,19.6159242 L114.788925,19.6159242 L114.657332,20.3250645 L103.001973,20.3250645 C103.001973,21.3570773 103.111874,22.2652486 103.318663,23.0510527 C103.526898,23.838331 103.830573,24.5017678 104.226798,25.0620034 C104.6129,25.6074959 105.062629,25.9908149 105.606353,26.2547154 C106.150077,26.5186158 106.803702,26.6616233 107.593259,26.6616233 C108.554898,26.660149 109.377714,26.4507978 110.116658,26.0379927 C110.900431,25.5986501 111.671188,24.9897625 112.426039,24.1995355 L112.426039,24.1995355 L113.193905,23.3945655 L115.202502,26.7648246 L114.78314,27.2454477 C113.850422,28.3157924 112.79045,29.1649915 111.611899,29.7709305 C110.405873,30.3930868 109.040779,30.6967934 107.559999,30.6953245 C105.606353,30.6967934 103.884078,30.233862 102.47271,29.2681928 C101.091709,28.3290612 100.040413,27.043468 99.3622037,25.4733342 C98.6912252,23.925315 98.3600741,22.2195452 98.3600741,20.3855109 C98.3600741,18.5101962 98.6897791,16.7778889 99.3622037,15.216601 C100.038966,13.6331984 101.100385,12.3431824 102.495847,11.4143708 C103.914446,10.464919 105.628044,10.0064105 107.559999,10.0093449 Z M141.244854,10.0093449 C142.620071,10.0078848 143.898401,10.2968484 145.036461,10.8836214 C146.187536,11.4748173 147.113024,12.3652969 147.753635,13.5019854 C148.404368,14.6475196 148.718167,15.987662 148.71672,17.4604917 C148.71672,18.0575849 148.629956,18.7637765 148.47378,19.6159242 L148.47378,19.6159242 L148.342187,20.3250645 L136.686828,20.3250645 C136.686828,21.3570773 136.795284,22.2652486 137.003518,23.0510527 C137.211753,23.838331 137.515429,24.5017678 137.911653,25.0620034 C138.297755,25.6074959 138.747484,25.9908149 139.291208,26.2547154 C139.834932,26.5186158 140.487111,26.6616233 141.278114,26.6616233 C142.239754,26.660149 143.06257,26.4507978 143.801514,26.0379927 C144.585286,25.5986501 145.356044,24.9897625 146.110895,24.1995355 L146.110895,24.1995355 L146.87876,23.3945655 L148.887357,26.7648246 L148.467996,27.2454477 C147.535278,28.3157924 146.475305,29.1649915 145.296755,29.7709305 C144.090729,30.3930868 142.725635,30.6967934 141.244854,30.6953245 C139.291208,30.6967934 137.568933,30.233862 136.157565,29.2681928 C134.776564,28.3290612 133.725268,27.043468 133.047059,25.4733342 C132.376081,23.925315 132.04493,22.2195452 132.04493,20.3855109 C132.04493,18.5101962 132.374634,16.7778889 133.047059,15.216601 C133.723822,13.6331984 134.78524,12.3431824 136.180702,11.4143708 C137.599301,10.464919 139.312899,10.0064105 141.244854,10.0093449 Z M168.332227,2.09993379 L168.332227,30.0477132 L164.569446,30.0477132 L164.382743,29.1940239 C163.857103,29.5430621 163.314228,29.8382903 162.749811,30.0608021 C161.783265,30.4447441 160.76358,30.6367309 159.713735,30.6367309 C158.169846,30.6396238 156.743723,30.2382299 155.514356,29.435442 C154.274937,28.6297455 153.315571,27.4488329 152.659239,25.9668749 C151.992853,24.4747366 151.676894,22.722274 151.676894,20.7283933 C151.676894,19.0602816 151.886576,17.5695976 152.326046,16.2577957 C152.762643,14.9459938 153.434774,13.8145283 154.339564,12.907029 C155.227121,12.0140729 156.274094,11.3363571 157.453194,10.8913334 C158.633731,10.4463097 159.942087,10.2310695 161.363901,10.2310695 C162.208373,10.2310695 163.006887,10.318329 163.755134,10.4928481 L163.755134,10.4928481 L163.755134,2.09993379 L168.332227,2.09993379 Z M48.3752882,5.3383173 C49.951179,5.3383173 51.4489386,5.58749292 52.8464545,6.0887191 C54.241022,6.58850497 55.4513179,7.30433661 56.4522813,8.23477371 L56.4522813,8.23477371 L56.9667676,8.7115147 L54.7392924,12.2042546 L53.9653517,11.4236092 C53.35357,10.8085989 52.560465,10.3044922 51.5477082,9.91849039 C50.5408481,9.53536923 49.4897629,9.34380865 48.3752882,9.34380865 C46.6387126,9.34524895 45.2323517,9.71396706 44.083971,10.4153956 C42.9120036,11.1369885 42.04519,12.0904705 41.4334082,13.3406553 C40.8186781,14.6009223 40.5046793,16.0268244 40.5046793,17.6514885 C40.5046793,19.3280037 40.8054106,20.7812715 41.3906572,22.0400982 L41.3906572,22.0400982 C41.9729555,23.2931636 42.8014406,24.2452053 43.9159153,24.9610369 C45.0082774,25.6581446 46.335033,26.0211015 47.9757874,26.0225418 C49.2288343,26.0225418 50.3727924,25.7906527 51.4386194,25.3326357 C52.5044464,24.871738 53.4980389,24.1803916 54.4267678,23.2326708 L54.4267678,23.2326708 L55.2346145,22.407376 L57.2645506,25.9058771 L56.807557,26.3638941 C55.732885,27.4354811 54.445932,28.3140672 52.9643883,28.9910106 C51.4474645,29.6852377 49.7713299,30.0294706 47.9757874,30.0280348 C45.3694498,30.0294706 43.0962752,29.4677516 41.227024,28.3039851 C39.3916788,27.1661441 37.9882663,25.6235773 37.0698566,23.7310164 C36.1588177,21.86006 35.7047725,19.8105059 35.7062431,17.6183615 C35.7047725,15.4233365 36.177982,13.376663 37.1273493,11.5229903 C38.0840875,9.64771302 39.5449928,8.12963144 41.4466758,7.01771589 C43.3778422,5.88419577 45.7070353,5.33687983 48.3752882,5.3383173 Z M130.697535,10.0093449 L130.697535,14.5007888 L129.790166,14.5007888 C128.784369,14.5007888 127.841628,14.6641405 126.94041,14.990844 C126.149922,15.2763417 125.205642,15.8134893 124.144481,16.6052302 L124.144481,16.6052302 L124.144481,30.0280348 L119.244684,30.0280348 L119.244684,10.5729886 L123.272483,10.5729886 L123.646196,12.1844315 C124.441298,11.5634006 125.241014,11.0792319 126.051495,10.7436985 C127.237227,10.2551149 128.492166,10.0078798 129.790166,10.0093449 L129.790166,10.0093449 L130.697535,10.0093449 Z M68.7011243,14.0427593 C67.9167478,14.0442335 67.2685273,14.1857567 66.7224237,14.4481643 C66.1778,14.7105719 65.7204937,15.0938638 65.3223857,15.6422662 C64.9168778,16.2039363 64.6060871,16.8643778 64.3929735,17.647178 C64.1798599,18.4270297 64.0688633,19.32924 64.0688633,20.3523347 C64.0688633,21.387223 64.1798599,22.2953301 64.3929735,23.0796045 C64.6060871,23.8638788 64.9168778,24.5228461 65.3194257,25.0756711 C65.7175338,25.6181766 66.1748401,25.9985202 66.7209437,26.2594536 C67.2670473,26.5203869 67.9152679,26.6604359 68.7011243,26.6604359 C69.4855008,26.6604359 70.1352013,26.5203869 70.6857448,26.2594536 C71.2362883,25.997046 71.6980344,25.6152282 72.1005823,25.0712485 C72.5090501,24.5184235 72.8228007,23.8594562 73.0373942,23.0766561 C73.2534678,22.2938559 73.3659444,21.3857488 73.3659444,20.3523347 C73.3659444,19.3307142 73.2534678,18.4299781 73.0388742,17.6501264 C72.8228007,16.8688004 72.5090501,16.2068847 72.0991024,15.6466888 C71.6950745,15.0968122 71.2333283,14.712046 70.6842648,14.4481643 C70.1337213,14.1857567 69.4840208,14.0442335 68.7011243,14.0427593 Z M161.493157,14.2101049 C160.569696,14.2101049 159.802778,14.3599005 159.175169,14.6347681 C158.54756,14.9125443 158.049207,15.3066666 157.635588,15.8549475 C157.21048,16.4221345 156.883032,17.098396 156.660425,17.9070012 C156.436381,18.7156064 156.318615,19.6565552 156.318615,20.7283933 C156.318615,21.8569501 156.42202,22.8095336 156.613031,23.5774176 C156.804042,24.346756 157.079788,24.9241233 157.410109,25.3371518 L157.410109,25.3371518 C157.773461,25.7938102 158.155484,26.1093989 158.55905,26.3144588 C158.965487,26.5195187 159.400649,26.6242302 159.907619,26.6256845 C160.727675,26.6256845 161.414167,26.4962495 161.984329,26.2621031 C162.495608,26.0526802 163.094493,25.7065506 163.755134,25.2368034 L163.755134,25.2368034 L163.755134,14.5213307 C163.088749,14.3191794 162.340501,14.2101049 161.493157,14.2101049 Z M107.463112,13.9428023 C106.902035,13.9428023 106.414708,14.0253633 105.98667,14.1772166 C105.558632,14.3305442 105.185545,14.5516898 104.84861,14.8553965 L104.84861,14.8553965 L104.657812,15.0386916 C104.286293,15.4181594 103.975181,15.8756149 103.723564,16.424056 L103.723564,16.424056 L110.415996,16.424056 C110.379844,16.1321438 110.319109,15.8697177 110.23379,15.6456234 C110.090629,15.2755731 109.892517,14.9866095 109.619209,14.7389265 C109.318425,14.4691288 109.001735,14.2745207 108.648893,14.1433076 C108.296051,14.0120946 107.907057,13.9428023 107.463112,13.9428023 Z M141.146521,13.9428023 C140.586891,13.9428023 140.099564,14.0253633 139.671526,14.1772166 C139.243488,14.3305442 138.8704,14.5516898 138.533465,14.8553965 L138.533465,14.8553965 L138.342668,15.0386916 C137.971149,15.4181594 137.660036,15.8756149 137.408419,16.424056 L137.408419,16.424056 L144.100851,16.424056 C144.064699,16.1321438 144.003964,15.8697177 143.9172,15.6456234 C143.775485,15.2755731 143.577372,14.9866095 143.304064,14.7389265 C143.003281,14.4691288 142.686591,14.2745207 142.333748,14.1433076 C141.980906,14.0120946 141.590466,13.9428023 141.146521,13.9428023 Z" id="Combined-Shape"></path>
            </g>
        </g>
    </g>
</svg>