<?xml version="1.0" encoding="UTF-8"?>
<svg width="169px" height="33px" viewBox="0 0 169 33" version="1.1" xmlns="http://www.w3.org/2000/svg" xmlns:xlink="http://www.w3.org/1999/xlink">
    <title>Group 7</title>
    <g id="Symbols" stroke="none" stroke-width="1" fill="none" fill-rule="evenodd">
        <g id="Topnav" transform="translate(-141.000000, -24.000000)">
            <g id="Group-7" transform="translate(141.000000, 24.000000)">
                <path d="M11.3863827,18.7349826 L22.774251,29.6229601 L20.1089104,32.1716334 L11.3863827,23.8309084 L2.66534062,32.1716334 L-4.4408921e-14,29.6229601 L11.3863827,18.7349826 Z M11.819921,-6.1284311e-14 C15.7312721,-6.1284311e-14 18.9129399,3.00134041 18.9129399,6.68954014 C18.9129399,9.25382867 17.3761511,11.4856459 15.1256814,12.6085353 L22.774251,20.1042811 L20.1089104,22.7165576 L11.3863827,14.1691423 L2.66534062,22.7165576 L-4.4408921e-14,20.1042811 L7.96132828,12.3010412 C6.01682154,11.1066075 4.72845783,9.03743712 4.72845783,6.68954014 C4.72845783,3.00134041 7.91012569,-6.1284311e-14 11.819921,-6.1284311e-14 Z M11.819921,3.72342328 C10.0867288,3.72342328 8.67559297,5.05458013 8.67559297,6.68954014 C8.67559297,8.32596779 10.0867288,9.65565699 11.819921,9.65565699 C13.554669,9.65565699 14.9642489,8.32596779 14.9642489,6.68954014 C14.9642489,5.05458013 13.554669,3.72342328 11.819921,3.72342328 Z" id="Combined-Shape" fill="#44D3A9"></path>
                <path d="M68.9141611,10.0354109 C70.8980146,10.0339365 72.6622643,10.5069089 74.1178816,11.4838927 L74.1178816,11.4838927 L74.3985054,11.6787989 C75.6867168,12.6094423 76.6748813,13.8340731 77.3243943,15.3046233 C78.0128819,16.8550861 78.3526743,18.5548309 78.3526743,20.3728187 C78.3526743,22.2100211 78.0128819,23.9260243 77.3258781,25.4868334 C76.6299713,27.0727692 75.5453065,28.3734434 74.1178816,29.3267785 C72.6622643,30.3037622 70.8980146,30.7767347 68.9141611,30.7752602 C66.9110181,30.7767347 65.1408331,30.3185426 63.6837321,29.3652075 C62.2518557,28.435521 61.1642233,27.1481491 60.4683165,25.5725597 C59.778345,24.0191408 59.4385526,22.2972254 59.4400316,20.4378524 C59.4385526,18.5577869 59.7768612,16.8225692 60.4668327,15.255848 C61.1627394,13.6699122 62.2503719,12.3766282 63.6822482,11.4454636 C65.1408331,10.4921285 66.9110181,10.0339365 68.9141611,10.0354109 Z M84.5866582,10.7044383 L89.1766666,23.688533 L93.766675,10.7044383 L98.6162202,10.7044383 L91.0823658,30.7752602 L87.2388899,30.7752602 L79.7035774,10.7044383 L84.5866582,10.7044383 Z M107.840103,10.0354109 C109.218901,10.033947 110.50056,10.3236631 111.641584,10.9119641 C112.795657,11.5046996 113.723555,12.3974982 114.365834,13.5371468 C115.018262,14.6856642 115.332877,16.0292965 115.331427,17.5059618 C115.331427,18.1046098 115.245887,18.8126405 115.087854,19.6670074 L115.087854,19.6670074 L114.955919,20.3779943 L103.270207,20.3779943 C103.270207,21.4126947 103.380395,22.323231 103.587722,23.1110814 C103.796499,23.90041 104.100965,24.5655745 104.498222,25.127269 C104.885329,25.6741821 105.336229,26.0584993 105.881369,26.323087 C106.426509,26.5876747 107.081837,26.7310546 107.87345,26.7310546 C108.837593,26.7295764 109.662552,26.5196801 110.403421,26.1057999 C111.189234,25.6653132 111.961999,25.05484 112.718815,24.2625551 L112.718815,24.2625551 L113.48868,23.4554889 L115.502508,26.8345246 L115.082055,27.3163994 C114.146908,28.3895315 113.084175,29.240942 111.902555,29.848459 C110.693389,30.4722355 109.324739,30.776733 107.840103,30.7752602 C105.881369,30.776733 104.15461,30.312596 102.739566,29.3444121 C101.354968,28.4028347 100.300934,27.1138937 99.6209594,25.539671 C98.9482336,23.9876205 98.6162202,22.2774086 98.6162202,20.4385982 C98.6162202,18.5583998 98.9467837,16.8215814 99.6209594,15.2562275 C100.299485,13.6687015 101.363667,12.3753261 102.762763,11.4440958 C104.185056,10.4921714 105.903117,10.0324688 107.840103,10.0354109 Z M141.61268,10.0354109 C142.991478,10.033947 144.273136,10.3236631 145.41416,10.9119641 C146.568233,11.5046996 147.496131,12.3974982 148.13841,13.5371468 C148.790838,14.6856642 149.105453,16.0292965 149.104004,17.5059618 C149.104004,18.1046098 149.017013,18.8126405 148.86043,19.6670074 L148.86043,19.6670074 L148.728495,20.3779943 L137.042783,20.3779943 C137.042783,21.4126947 137.151521,22.323231 137.360298,23.1110814 C137.569075,23.90041 137.873542,24.5655745 138.270798,25.127269 C138.657905,25.6741821 139.108806,26.0584993 139.653946,26.323087 C140.199085,26.5876747 140.852963,26.7310546 141.646026,26.7310546 C142.61017,26.7295764 143.435129,26.5196801 144.175997,26.1057999 C144.96181,25.6653132 145.734575,25.05484 146.491392,24.2625551 L146.491392,24.2625551 L147.261257,23.4554889 L149.275085,26.8345246 L148.854631,27.3163994 C147.919484,28.3895315 146.856751,29.240942 145.675132,29.848459 C144.465965,30.4722355 143.097316,30.776733 141.61268,30.7752602 C139.653946,30.776733 137.927186,30.312596 136.512142,29.3444121 C135.127545,28.4028347 134.073511,27.1138937 133.393536,25.539671 C132.72081,23.9876205 132.388797,22.2774086 132.388797,20.4385982 C132.388797,18.5583998 132.71936,16.8215814 133.393536,15.2562275 C134.072061,13.6687015 135.136244,12.3753261 136.535339,11.4440958 C137.957633,10.4921714 139.675693,10.0324688 141.61268,10.0354109 Z M168.770592,2.10540236 L168.770592,30.1259624 L164.998012,30.1259624 L164.810823,29.27005 C164.283814,29.6199972 163.739526,29.9159942 163.173639,30.1390855 C162.204575,30.5240273 161.182235,30.716514 160.129656,30.716514 C158.581746,30.7194145 157.15191,30.3169753 155.919342,29.5120968 C154.676694,28.7043021 153.71483,27.5203143 153.056789,26.034497 C152.388668,24.5384729 152.071886,22.7814466 152.071886,20.7823735 C152.071886,19.1099177 152.282114,17.6153518 152.722728,16.3001337 C153.160463,14.9849157 153.834343,13.8505037 154.74149,12.9406411 C155.631359,12.0453596 156.681057,11.3658789 157.863228,10.9196963 C159.046839,10.4735136 160.358603,10.2577129 161.78412,10.2577129 C162.63079,10.2577129 163.431384,10.3451997 164.18158,10.5201733 L164.18158,10.5201733 L164.18158,2.10540236 L168.770592,2.10540236 Z M48.5012655,5.35221917 C50.0812602,5.35221917 51.5829202,5.60204368 52.9840755,6.10457514 C54.3822747,6.60566254 55.5957224,7.32335832 56.5992925,8.25621844 L56.5992925,8.25621844 L57.1151186,8.73420094 L54.8818427,12.2360365 L54.1058865,11.4533582 C53.4925116,10.8367463 52.6973412,10.3313268 51.681947,9.94431979 C50.6724649,9.56020092 49.6186425,9.36814148 48.5012655,9.36814148 C46.7601676,9.36958554 45.3501443,9.73926385 44.198773,10.4425191 C43.0237536,11.1659911 42.1546826,12.1219561 41.5413077,13.3753966 C40.9249768,14.6389455 40.6101603,16.0685609 40.6101603,17.6974559 C40.6101603,19.378337 40.9116747,20.8353894 41.4984454,22.0974943 L41.4984454,22.0974943 C42.0822601,23.3538229 42.9129027,24.3083439 44.0302797,25.0260396 C45.1254865,25.7249627 46.4556971,26.0888648 48.1007243,26.0903089 C49.3570344,26.0903089 50.5039716,25.8578158 51.5725742,25.3986061 C52.6411767,24.9365082 53.6373567,24.2433613 54.5685042,23.2931726 L54.5685042,23.2931726 L55.3784547,22.4657285 L57.413677,25.9733403 L56.9554933,26.4325501 C55.8780227,27.5069277 54.5877183,28.3878018 53.1023164,29.0665081 C51.5814422,29.762543 49.9009428,30.1076724 48.1007243,30.1062328 C45.4875994,30.1076724 43.2085051,29.5444906 41.3343861,28.3776934 C39.4942613,27.2368892 38.087194,25.6903054 37.1663927,23.7928159 C36.2529813,21.9169873 35.7977537,19.8620957 35.7992281,17.6642427 C35.7977537,15.4635015 36.2721955,13.411498 37.2240351,11.5529981 C38.1832648,9.67283728 39.6479745,8.15080235 41.5546098,7.0359912 C43.4908054,5.8995192 45.8260641,5.35077796 48.5012655,5.35221917 Z M131.037894,10.0354109 L131.037894,14.5385512 L130.128161,14.5385512 C129.119745,14.5385512 128.174549,14.7023284 127.270984,15.0298827 C126.478437,15.3161238 125.531698,15.8546703 124.467774,16.648473 L124.467774,16.648473 L124.467774,30.1062328 L119.555218,30.1062328 L119.555218,10.6005224 L123.593505,10.6005224 L123.968192,12.2161618 C124.765364,11.5935136 125.567162,11.108084 126.379754,10.7716769 C127.568574,10.2818209 128.826781,10.033942 130.128161,10.0354109 L130.128161,10.0354109 L131.037894,10.0354109 Z M68.8800335,14.079329 C68.0936144,14.080807 67.4437057,14.2226988 66.89618,14.4857897 C66.350138,14.7488806 65.8916408,15.1331708 65.492496,15.6830012 C65.0859322,16.2461341 64.7743322,16.9082955 64.5606636,17.6931342 C64.346995,18.4750168 64.2357092,19.3795766 64.2357092,20.4053356 C64.2357092,21.4429189 64.346995,22.3533909 64.5606636,23.1397076 C64.7743322,23.9260243 65.0859322,24.5867077 65.4895284,25.1409723 C65.8886732,25.6848906 66.3471704,26.0662247 66.8946962,26.3278375 C67.4422219,26.5894504 68.0921306,26.7298641 68.8800335,26.7298641 C69.6664526,26.7298641 70.317845,26.5894504 70.8698222,26.3278375 C71.4217994,26.0647466 71.884748,25.6819345 72.2883443,25.1365382 C72.6978757,24.5822736 73.0124434,23.9215902 73.2275958,23.1367515 C73.444232,22.3519128 73.5570015,21.4414409 73.5570015,20.4053356 C73.5570015,19.3810546 73.444232,18.4779728 73.2290796,17.6960902 C73.0124434,16.9127296 72.6978757,16.2490901 72.2868605,15.6874353 C71.8817804,15.1361268 71.4188318,14.7503587 70.8683384,14.4857897 C70.3163612,14.2226988 69.6649688,14.080807 68.8800335,14.079329 Z M161.913712,14.2471104 C160.987846,14.2471104 160.218931,14.3972961 159.589688,14.6728795 C158.960444,14.9513791 158.460794,15.3465277 158.046098,15.8962364 C157.619883,16.4649005 157.291582,17.1429231 157.068395,17.953634 C156.843768,18.7643449 156.725695,19.7077441 156.725695,20.7823735 C156.725695,21.9138693 156.829369,22.8689334 157.020878,23.6388171 C157.212386,24.410159 157.48885,24.9890299 157.820031,25.403134 L157.820031,25.403134 C158.18433,25.8609815 158.567347,26.1773921 158.971964,26.382986 C159.37946,26.58858 159.815755,26.6935641 160.324045,26.6950222 C161.146237,26.6950222 161.834517,26.5652502 162.406164,26.330494 C162.918774,26.1205257 163.519219,25.7734947 164.18158,25.3025242 L164.18158,25.3025242 L164.18158,14.5591466 C163.513459,14.3564689 162.763263,14.2471104 161.913712,14.2471104 Z M107.742964,13.9791116 C107.180426,13.9791116 106.69183,14.0618877 106.262677,14.2141364 C105.833524,14.3678634 105.459466,14.5895849 105.121653,14.8940824 L105.121653,14.8940824 L104.930359,15.0778548 C104.557872,15.4583108 104.245949,15.9169576 103.993677,16.466827 L103.993677,16.466827 L110.703537,16.466827 C110.667291,16.1741546 110.606398,15.911045 110.520858,15.6863673 C110.377323,15.3153533 110.178695,15.0256372 109.904676,14.7773091 C109.603109,14.5068088 109.285594,14.3116939 108.931833,14.1801391 C108.578072,14.0485844 108.188065,13.9791116 107.742964,13.9791116 Z M141.51409,13.9791116 C140.953002,13.9791116 140.464406,14.0618877 140.035253,14.2141364 C139.606101,14.3678634 139.232042,14.5895849 138.894229,14.8940824 L138.894229,14.8940824 L138.702935,15.0778548 C138.330449,15.4583108 138.018526,15.9169576 137.766254,16.466827 L137.766254,16.466827 L144.476114,16.466827 C144.439868,16.1741546 144.378975,15.911045 144.291984,15.6863673 C144.1499,15.3153533 143.951272,15.0256372 143.677252,14.7773091 C143.375685,14.5068088 143.05817,14.3116939 142.704409,14.1801391 C142.350648,14.0485844 141.959191,13.9791116 141.51409,13.9791116 Z" id="Combined-Shape" fill="#424242"></path>
            </g>
        </g>
    </g>
</svg>