<?xml version="1.0" standalone="no"?>
<!DOCTYPE svg PUBLIC "-//W3C//DTD SVG 20010904//EN"
 "http://www.w3.org/TR/2001/REC-SVG-20010904/DTD/svg10.dtd">
<svg version="1.0" xmlns="http://www.w3.org/2000/svg"
 width="978.000000pt" height="978.000000pt" viewBox="0 0 978.000000 978.000000"
 preserveAspectRatio="xMidYMid meet">
<metadata>
Created by potrace 1.11, written by Peter Selinger 2001-2013
</metadata>
<g transform="translate(0.000000,978.000000) scale(0.100000,-0.100000)"
fill="#000000" stroke="none">
<path d="M4690 9770 c-123 -16 -157 -22 -219 -35 -802 -170 -1423 -822 -1566
-1643 -33 -189 -36 -373 -10 -616 8 -77 62 -307 84 -361 5 -11 23 -58 41 -105
142 -370 414 -710 738 -925 40 -26 71 -49 70 -51 -2 -1 -524 -525 -1161 -1164
l-1159 -1162 402 -403 402 -402 1101 1104 c606 607 1177 1179 1268 1271 92 92
178 177 191 190 l25 23 219 -220 c1623 -1629 2356 -2361 2362 -2361 4 0 187
180 406 399 l397 399 -1158 1162 c-637 639 -1159 1163 -1161 1165 -2 1 14 13
35 26 112 68 295 225 403 345 259 289 448 700 495 1074 3 25 7 63 10 85 7 59
8 322 0 380 -7 61 -23 169 -30 210 -11 59 -57 219 -87 304 -45 125 -166 360
-230 446 -263 356 -554 587 -924 734 -100 39 -247 84 -314 96 -19 3 -42 8 -50
10 -8 2 -33 7 -55 10 -23 3 -52 8 -65 11 -40 9 -400 12 -460 4z m330 -1139
c159 -26 248 -61 380 -152 179 -122 307 -316 361 -549 18 -76 16 -279 -4 -366
-62 -282 -278 -534 -542 -633 -146 -55 -321 -75 -451 -51 -38 7 -76 14 -84 15
-39 8 -123 41 -195 78 -238 123 -413 362 -458 624 -70 410 144 809 523 973
134 58 331 83 470 61z"/>
<path d="M4232 3537 c-1060 -1061 -2721 -2731 -2719 -2734 1 -1 182 -182 402
-402 l399 -401 1291 1296 1290 1296 1291 -1296 1290 -1296 398 399 c219 219
399 401 400 405 1 6 -3309 3333 -3375 3391 -3 2 -303 -293 -667 -658z"/>
</g>
</svg>
