<?xml version="1.0" encoding="UTF-8"?>
<svg width="337px" height="25px" viewBox="0 0 337 25" version="1.1" xmlns="http://www.w3.org/2000/svg" xmlns:xlink="http://www.w3.org/1999/xlink">
    <!-- Generator: Sketch 64 (93537) - https://sketch.com -->
    <title>SPACEFOREVERYONE</title>
    <desc>Created with Sketch.</desc>
    <g id="Symbols" stroke="none" stroke-width="1" fill="none" fill-rule="evenodd">
        <g id="Footer" transform="translate(-970.000000, -101.000000)" fill="#FF5F0D" fill-rule="nonzero">
            <path d="M977.441406,125.029297 C978.271484,125.029297 979.082031,124.931641 979.873047,124.736328 C980.654297,124.550781 981.347656,124.248047 981.953125,123.828125 C982.558594,123.408203 983.046875,122.866211 983.417969,122.202148 C983.789062,121.538086 983.974609,120.732422 983.974609,119.785156 C983.974609,119.091797 983.901367,118.476562 983.754883,117.939453 C983.598633,117.402344 983.374023,116.914062 983.081055,116.474609 C982.788086,116.035156 982.431641,115.625 982.011719,115.244141 C981.582031,114.863281 981.088867,114.487305 980.532227,114.116211 L980.532227,114.116211 L976.606445,111.435547 C976.37207,111.269531 976.142578,111.09375 975.917969,110.908203 C975.683594,110.732422 975.473633,110.537109 975.288086,110.322266 C975.102539,110.107422 974.956055,109.873047 974.848633,109.619141 C974.731445,109.365234 974.672852,109.082031 974.672852,108.769531 C974.672852,108.466797 974.746094,108.193359 974.892578,107.949219 C975.029297,107.714844 975.209961,107.519531 975.43457,107.363281 C975.649414,107.207031 975.898438,107.084961 976.181641,106.99707 C976.455078,106.918945 976.733398,106.879883 977.016602,106.879883 C977.514648,106.879883 978.00293,106.958008 978.481445,107.114258 C978.950195,107.270508 979.394531,107.485352 979.814453,107.758789 C980.224609,108.032227 980.605469,108.349609 980.957031,108.710938 C981.308594,109.082031 981.616211,109.472656 981.879883,109.882812 L981.879883,109.882812 L982.143555,109.882812 C982.084961,109.287109 982.055664,108.676758 982.055664,108.051758 C982.055664,107.514648 982.084961,106.948242 982.143555,106.352539 C982.192383,105.756836 982.280273,105.161133 982.407227,104.56543 C982.524414,103.979492 982.685547,103.408203 982.890625,102.851562 C983.085938,102.304688 983.330078,101.796875 983.623047,101.328125 C983.134766,101.435547 982.695312,101.635742 982.304688,101.928711 C981.914062,102.22168 981.591797,102.573242 981.337891,102.983398 C980.751953,102.397461 980.078125,101.977539 979.316406,101.723633 C978.544922,101.479492 977.749023,101.357422 976.928711,101.357422 C976.098633,101.357422 975.307617,101.479492 974.555664,101.723633 C973.793945,101.967773 973.125,102.329102 972.548828,102.807617 C971.972656,103.286133 971.513672,103.87207 971.171875,104.56543 C970.830078,105.258789 970.65918,106.049805 970.65918,106.938477 C970.65918,107.583008 970.737305,108.183594 970.893555,108.740234 C971.049805,109.296875 971.274414,109.814453 971.567383,110.292969 C971.850586,110.771484 972.202148,111.21582 972.62207,111.625977 C973.032227,112.036133 973.496094,112.421875 974.013672,112.783203 L974.013672,112.783203 L978.071289,115.610352 C978.24707,115.727539 978.422852,115.864258 978.598633,116.020508 C978.774414,116.176758 978.930664,116.342773 979.067383,116.518555 C979.194336,116.704102 979.301758,116.899414 979.389648,117.104492 C979.467773,117.30957 979.506836,117.529297 979.506836,117.763672 C979.506836,118.105469 979.423828,118.393555 979.257812,118.62793 C979.091797,118.862305 978.881836,119.047852 978.62793,119.18457 C978.374023,119.331055 978.095703,119.433594 977.792969,119.492188 C977.480469,119.560547 977.182617,119.594727 976.899414,119.594727 C975.825195,119.594727 974.897461,119.365234 974.116211,118.90625 C973.325195,118.457031 972.602539,117.817383 971.948242,116.987305 L971.948242,116.987305 L971.655273,116.987305 C971.655273,117.358398 971.660156,117.744141 971.669922,118.144531 C971.679688,118.554688 971.68457,118.979492 971.68457,119.418945 C971.68457,119.887695 971.674805,120.356445 971.655273,120.825195 C971.625977,121.303711 971.577148,121.772461 971.508789,122.231445 C971.430664,122.69043 971.323242,123.134766 971.186523,123.564453 C971.049805,123.994141 970.874023,124.394531 970.65918,124.765625 L970.65918,124.765625 L970.922852,125.029297 C971.235352,124.882812 971.533203,124.692383 971.816406,124.458008 C972.089844,124.223633 972.324219,123.955078 972.519531,123.652344 L972.519531,123.652344 L973.676758,124.326172 C974.067383,124.501953 974.467773,124.638672 974.87793,124.736328 C975.27832,124.84375 975.693359,124.916992 976.123047,124.956055 C976.542969,125.004883 976.982422,125.029297 977.441406,125.029297 Z M997.228516,125 L997.228516,124.707031 C996.75,124.277344 996.31543,123.764648 995.924805,123.168945 C995.524414,122.583008 995.1875,121.958008 994.914062,121.293945 C994.630859,120.629883 994.411133,119.951172 994.254883,119.257812 C994.098633,118.564453 994.020508,117.900391 994.020508,117.265625 L994.020508,117.265625 L994.020508,114.350586 L999.25,114.350586 C1000.1875,114.350586 1001.04199,114.199219 1001.81348,113.896484 C1002.5752,113.59375 1003.22949,113.168945 1003.77637,112.62207 C1004.32324,112.075195 1004.74805,111.416016 1005.05078,110.644531 C1005.34375,109.873047 1005.49023,109.018555 1005.49023,108.081055 C1005.49023,107.22168 1005.3584,106.386719 1005.09473,105.576172 C1004.82129,104.765625 1004.43066,104.047852 1003.92285,103.422852 C1003.40527,102.797852 1002.78027,102.294922 1002.04785,101.914062 C1001.31543,101.542969 1000.49023,101.357422 999.572266,101.357422 L999.572266,101.357422 L988.351562,101.357422 L988.351562,101.606445 C988.830078,102.016602 989.269531,102.485352 989.669922,103.012695 C990.060547,103.549805 990.397461,104.121094 990.680664,104.726562 C990.954102,105.332031 991.168945,105.957031 991.325195,106.601562 C991.481445,107.255859 991.55957,107.900391 991.55957,108.535156 L991.55957,108.535156 L991.55957,117.265625 C991.55957,117.919922 991.481445,118.588867 991.325195,119.272461 C991.15918,119.96582 990.93457,120.639648 990.651367,121.293945 C990.358398,121.958008 990.011719,122.583008 989.611328,123.168945 C989.210938,123.754883 988.771484,124.267578 988.292969,124.707031 L988.292969,124.707031 L988.292969,125 L997.228516,125 Z M999.308594,111.743164 L994.020508,111.743164 L994.020508,108.769531 C994.020508,108.496094 994.069336,108.237305 994.166992,107.993164 C994.264648,107.749023 994.401367,107.539062 994.577148,107.363281 C994.75293,107.1875 994.962891,107.045898 995.207031,106.938477 C995.441406,106.84082 995.695312,106.791992 995.96875,106.791992 L995.96875,106.791992 L999.572266,106.791992 C999.933594,106.791992 1000.29492,106.835938 1000.65625,106.923828 C1001.01758,107.021484 1001.34473,107.167969 1001.6377,107.363281 C1001.93066,107.568359 1002.16992,107.822266 1002.35547,108.125 C1002.54102,108.427734 1002.63379,108.78418 1002.63379,109.194336 C1002.63379,109.633789 1002.53125,110.014648 1002.32617,110.336914 C1002.12109,110.65918 1001.8623,110.922852 1001.5498,111.12793 C1001.22754,111.342773 1000.87109,111.499023 1000.48047,111.59668 C1000.08008,111.694336 999.689453,111.743164 999.308594,111.743164 L999.308594,111.743164 Z M1013.58789,125 L1013.58789,124.707031 C1012.94336,124.150391 1012.44043,123.496094 1012.0791,122.744141 C1011.70801,121.992188 1011.52246,121.186523 1011.52246,120.327148 C1011.52246,119.985352 1011.55176,119.65332 1011.61035,119.331055 C1011.65918,119.018555 1011.72754,118.706055 1011.81543,118.393555 L1011.81543,118.393555 L1018.48047,118.393555 C1018.59766,118.94043 1018.65625,119.492188 1018.65625,120.048828 C1018.65625,120.46875 1018.62207,120.893555 1018.55371,121.323242 C1018.47559,121.75293 1018.36328,122.167969 1018.2168,122.568359 C1018.06055,122.978516 1017.86523,123.364258 1017.63086,123.725586 C1017.39648,124.09668 1017.11816,124.423828 1016.7959,124.707031 L1016.7959,124.707031 L1016.7959,125 L1025.11621,125 L1025.11621,124.707031 C1024.68652,124.257812 1024.2666,123.764648 1023.85645,123.227539 C1023.44629,122.69043 1023.06543,122.133789 1022.71387,121.557617 C1022.3623,120.981445 1022.0498,120.390625 1021.77637,119.785156 C1021.49316,119.179688 1021.26367,118.579102 1021.08789,117.983398 L1021.08789,117.983398 L1017.7627,106.791992 C1017.65527,106.430664 1017.57227,106.064453 1017.51367,105.693359 C1017.45508,105.322266 1017.42578,104.946289 1017.42578,104.56543 C1017.42578,103.979492 1017.51367,103.408203 1017.68945,102.851562 C1017.86523,102.294922 1018.1582,101.796875 1018.56836,101.357422 L1018.56836,101.357422 L1011.85938,101.357422 C1012.28906,101.826172 1012.5918,102.37793 1012.76758,103.012695 C1012.93359,103.657227 1013.0166,104.287109 1013.0166,104.902344 C1013.0166,105.683594 1012.89941,106.455078 1012.66504,107.216797 L1012.66504,107.216797 L1009.39844,117.983398 C1009.21289,118.579102 1008.97852,119.179688 1008.69531,119.785156 C1008.41211,120.390625 1008.09473,120.981445 1007.74316,121.557617 C1007.38184,122.143555 1006.99609,122.705078 1006.58594,123.242188 C1006.17578,123.779297 1005.75098,124.267578 1005.31152,124.707031 L1005.31152,124.707031 L1005.31152,125 L1013.58789,125 Z M1017.87988,116.357422 L1012.41602,116.357422 L1015.09668,106.967773 L1017.87988,116.357422 Z M1035.07422,125.117188 C1035.62109,125.117188 1036.16797,125.048828 1036.71484,124.912109 C1037.26172,124.775391 1037.7793,124.575195 1038.26758,124.311523 C1038.74609,124.047852 1039.18555,123.725586 1039.58594,123.344727 C1039.98633,122.963867 1040.31348,122.524414 1040.56738,122.026367 C1040.87988,122.338867 1041.2168,122.626953 1041.57812,122.890625 C1041.92969,123.164062 1042.31055,123.408203 1042.7207,123.623047 C1042.48633,123.125 1042.27637,122.597656 1042.09082,122.041016 C1041.90527,121.494141 1041.74902,120.932617 1041.62207,120.356445 C1041.48535,119.780273 1041.37793,119.199219 1041.2998,118.613281 C1041.22168,118.037109 1041.17773,117.475586 1041.16797,116.928711 L1041.16797,116.928711 L1040.94824,116.928711 C1040.63574,117.495117 1040.30371,117.954102 1039.95215,118.305664 C1039.60059,118.666992 1039.21484,118.950195 1038.79492,119.155273 C1038.36523,119.360352 1037.89648,119.501953 1037.38867,119.580078 C1036.88086,119.658203 1036.31934,119.697266 1035.7041,119.697266 C1034.91309,119.697266 1034.23926,119.575195 1033.68262,119.331055 C1033.11621,119.09668 1032.65234,118.759766 1032.29102,118.320312 C1031.92969,117.890625 1031.66602,117.373047 1031.5,116.767578 C1031.32422,116.162109 1031.23633,115.488281 1031.23633,114.746094 L1031.23633,114.746094 L1031.23633,110.571289 C1031.23633,109.868164 1031.34863,109.277344 1031.57324,108.798828 C1031.79785,108.330078 1032.10547,107.949219 1032.49609,107.65625 C1032.88672,107.373047 1033.35059,107.172852 1033.8877,107.055664 C1034.4248,106.938477 1035.01074,106.879883 1035.64551,106.879883 C1036.15332,106.879883 1036.6709,106.918945 1037.19824,106.99707 C1037.71582,107.075195 1038.20898,107.211914 1038.67773,107.407227 C1039.14648,107.602539 1039.57129,107.866211 1039.95215,108.198242 C1040.33301,108.530273 1040.63574,108.950195 1040.86035,109.458008 L1040.86035,109.458008 L1041.13867,109.458008 C1041.19727,108.774414 1041.26562,108.066406 1041.34375,107.333984 C1041.41211,106.611328 1041.51465,105.888672 1041.65137,105.166016 C1041.78809,104.443359 1041.96875,103.735352 1042.19336,103.041992 C1042.4082,102.348633 1042.68652,101.699219 1043.02832,101.09375 L1043.02832,101.09375 L1041.50488,101.899414 C1041.02637,102.241211 1040.63086,102.661133 1040.31836,103.15918 C1040.07422,102.749023 1039.75684,102.426758 1039.36621,102.192383 C1038.96582,101.958008 1038.53613,101.777344 1038.07715,101.650391 C1037.6084,101.523438 1037.13477,101.44043 1036.65625,101.401367 C1036.16797,101.37207 1035.70898,101.357422 1035.2793,101.357422 C1034.41992,101.357422 1033.59961,101.494141 1032.81836,101.767578 C1032.03711,102.050781 1031.35352,102.451172 1030.76758,102.96875 C1030.17188,103.486328 1029.70312,104.111328 1029.36133,104.84375 C1029.00977,105.576172 1028.83398,106.396484 1028.83398,107.304688 L1028.83398,107.304688 L1028.83398,118.964844 C1028.83398,119.892578 1028.99023,120.732422 1029.30273,121.484375 C1029.60547,122.236328 1030.03516,122.880859 1030.5918,123.417969 C1031.14844,123.964844 1031.80762,124.384766 1032.56934,124.677734 C1033.33105,124.970703 1034.16602,125.117188 1035.07422,125.117188 Z M1061.98047,125 C1061.72656,124.335938 1061.50684,123.632812 1061.32129,122.890625 C1061.13574,122.148438 1060.97949,121.396484 1060.85254,120.634766 C1060.71582,119.873047 1060.6084,119.111328 1060.53027,118.349609 C1060.44238,117.587891 1060.37891,116.855469 1060.33984,116.152344 C1060.17383,116.552734 1059.95898,116.958008 1059.69531,117.368164 C1059.42188,117.788086 1059.10938,118.168945 1058.75781,118.510742 C1058.40625,118.862305 1058.02539,119.145508 1057.61523,119.360352 C1057.19531,119.584961 1056.75098,119.697266 1056.28223,119.697266 L1056.28223,119.697266 L1055.08105,119.697266 C1054.78809,119.697266 1054.51465,119.638672 1054.26074,119.521484 C1053.99707,119.414062 1053.76758,119.262695 1053.57227,119.067383 C1053.37695,118.87207 1053.2207,118.642578 1053.10352,118.378906 C1052.98633,118.115234 1052.92773,117.832031 1052.92773,117.529297 L1052.92773,117.529297 L1052.92773,114.467773 C1053.29883,114.506836 1053.68945,114.575195 1054.09961,114.672852 C1054.5,114.770508 1054.89062,114.902344 1055.27148,115.068359 C1055.65234,115.244141 1056.00879,115.454102 1056.34082,115.698242 C1056.66309,115.952148 1056.93652,116.245117 1057.16113,116.577148 L1057.16113,116.577148 L1057.27832,116.416016 C1057.1123,115.888672 1056.99512,115.351562 1056.92676,114.804688 C1056.8584,114.257812 1056.82422,113.706055 1056.82422,113.149414 C1056.82422,112.592773 1056.8584,112.041016 1056.92676,111.494141 C1056.99512,110.947266 1057.1123,110.410156 1057.27832,109.882812 L1057.27832,109.882812 L1057.16113,109.736328 C1056.93652,110.068359 1056.66309,110.356445 1056.34082,110.600586 C1056.00879,110.844727 1055.65234,111.049805 1055.27148,111.21582 C1054.89062,111.391602 1054.5,111.523438 1054.09961,111.611328 C1053.68945,111.708984 1053.29883,111.772461 1052.92773,111.801758 L1052.92773,111.801758 L1052.92773,109.077148 C1052.92773,108.774414 1052.98633,108.491211 1053.10352,108.227539 C1053.2207,107.963867 1053.37695,107.734375 1053.57227,107.539062 C1053.76758,107.34375 1053.99707,107.1875 1054.26074,107.070312 C1054.51465,106.962891 1054.78809,106.90918 1055.08105,106.90918 L1055.08105,106.90918 L1056.28223,106.90918 C1056.75098,106.90918 1057.19531,106.992188 1057.61523,107.158203 C1058.03516,107.324219 1058.4209,107.548828 1058.77246,107.832031 C1059.12402,108.115234 1059.44141,108.4375 1059.72461,108.798828 C1059.99805,109.169922 1060.22266,109.560547 1060.39844,109.970703 C1060.4375,109.287109 1060.50098,108.574219 1060.58887,107.832031 C1060.67676,107.089844 1060.78906,106.342773 1060.92578,105.59082 C1061.0625,104.848633 1061.22852,104.116211 1061.42383,103.393555 C1061.61914,102.670898 1061.84863,101.992188 1062.1123,101.357422 L1062.1123,101.357422 L1047.34668,101.357422 L1047.34668,101.870117 C1047.81543,102.280273 1048.24023,102.744141 1048.62109,103.261719 C1049.00195,103.779297 1049.3291,104.326172 1049.60254,104.902344 C1049.87598,105.488281 1050.09082,106.09375 1050.24707,106.71875 C1050.39355,107.34375 1050.4668,107.96875 1050.4668,108.59375 L1050.4668,108.59375 L1050.4668,117.617188 C1050.4668,118.251953 1050.39355,118.896484 1050.24707,119.550781 C1050.09082,120.205078 1049.87598,120.839844 1049.60254,121.455078 C1049.31934,122.080078 1048.9873,122.666016 1048.60645,123.212891 C1048.22559,123.769531 1047.80566,124.267578 1047.34668,124.707031 L1047.34668,124.707031 L1047.34668,125 L1061.98047,125 Z M1084.5332,125 C1084.01562,124.550781 1083.54688,124.033203 1083.12695,123.447266 C1082.69727,122.871094 1082.33105,122.255859 1082.02832,121.601562 C1081.72559,120.957031 1081.49121,120.288086 1081.3252,119.594727 C1081.15918,118.901367 1081.07617,118.212891 1081.07617,117.529297 L1081.07617,117.529297 L1081.07617,114.467773 C1081.44727,114.506836 1081.83789,114.575195 1082.24805,114.672852 C1082.64844,114.770508 1083.03906,114.902344 1083.41992,115.068359 C1083.80078,115.234375 1084.15723,115.439453 1084.48926,115.683594 C1084.81152,115.9375 1085.08496,116.235352 1085.30957,116.577148 L1085.30957,116.577148 L1085.42676,116.416016 C1085.26074,115.888672 1085.14355,115.351562 1085.0752,114.804688 C1085.00684,114.257812 1084.97266,113.706055 1084.97266,113.149414 C1084.97266,112.592773 1085.00684,112.041016 1085.0752,111.494141 C1085.14355,110.947266 1085.26074,110.410156 1085.42676,109.882812 L1085.42676,109.882812 L1085.30957,109.736328 C1085.08496,110.068359 1084.81152,110.356445 1084.48926,110.600586 C1084.15723,110.844727 1083.80078,111.049805 1083.41992,111.21582 C1083.03906,111.391602 1082.64844,111.523438 1082.24805,111.611328 C1081.83789,111.708984 1081.44727,111.772461 1081.07617,111.801758 L1081.07617,111.801758 L1081.07617,109.077148 C1081.07617,108.774414 1081.13477,108.491211 1081.25195,108.227539 C1081.36914,107.963867 1081.52539,107.734375 1081.7207,107.539062 C1081.91602,107.34375 1082.14551,107.1875 1082.40918,107.070312 C1082.66309,106.962891 1082.93652,106.90918 1083.22949,106.90918 L1083.22949,106.90918 L1084.22559,106.90918 C1084.71387,106.90918 1085.16309,106.992188 1085.57324,107.158203 C1085.97363,107.333984 1086.34473,107.563477 1086.68652,107.84668 C1087.01855,108.129883 1087.32129,108.452148 1087.59473,108.813477 C1087.8584,109.18457 1088.09766,109.570312 1088.3125,109.970703 C1088.35156,109.287109 1088.41504,108.574219 1088.50293,107.832031 C1088.59082,107.089844 1088.70312,106.342773 1088.83984,105.59082 C1088.97656,104.848633 1089.14258,104.116211 1089.33789,103.393555 C1089.52344,102.670898 1089.74805,101.992188 1090.01172,101.357422 L1090.01172,101.357422 L1075.49512,101.357422 L1075.49512,101.870117 C1075.96387,102.280273 1076.38867,102.744141 1076.76953,103.261719 C1077.15039,103.779297 1077.47754,104.326172 1077.75098,104.902344 C1078.02441,105.488281 1078.23926,106.09375 1078.39551,106.71875 C1078.54199,107.34375 1078.61523,107.96875 1078.61523,108.59375 L1078.61523,108.59375 L1078.61523,117.617188 C1078.61523,118.251953 1078.54199,118.896484 1078.39551,119.550781 C1078.23926,120.205078 1078.02441,120.839844 1077.75098,121.455078 C1077.46777,122.080078 1077.13574,122.666016 1076.75488,123.212891 C1076.37402,123.769531 1075.9541,124.267578 1075.49512,124.707031 L1075.49512,124.707031 L1075.49512,125 L1084.5332,125 Z M1101.2002,125.292969 C1102.11816,125.292969 1102.99219,125.166016 1103.82227,124.912109 C1104.65234,124.667969 1105.37988,124.296875 1106.00488,123.798828 C1106.62988,123.310547 1107.12793,122.69043 1107.49902,121.938477 C1107.86035,121.196289 1108.04102,120.327148 1108.04102,119.331055 L1108.04102,119.331055 L1108.04102,107.084961 C1108.04102,106.088867 1107.86035,105.214844 1107.49902,104.462891 C1107.12793,103.720703 1106.62988,103.100586 1106.00488,102.602539 C1105.37988,102.114258 1104.65234,101.743164 1103.82227,101.489258 C1102.99219,101.245117 1102.11816,101.123047 1101.2002,101.123047 L1101.2002,101.123047 L1098.56348,101.489258 C1097.7334,101.743164 1097.00586,102.114258 1096.38086,102.602539 C1095.75586,103.100586 1095.25781,103.720703 1094.88672,104.462891 C1094.51562,105.214844 1094.33008,106.088867 1094.33008,107.084961 L1094.33008,107.084961 L1094.33008,119.331055 C1094.33008,120.327148 1094.51562,121.196289 1094.88672,121.938477 C1095.25781,122.69043 1095.75586,123.310547 1096.38086,123.798828 C1097.00586,124.296875 1097.7334,124.667969 1098.56348,124.912109 C1099.39355,125.166016 1100.27246,125.292969 1101.2002,125.292969 Z M1101.2002,119.873047 C1100.43848,119.873047 1099.77441,119.794922 1099.20801,119.638672 C1098.63184,119.482422 1098.15332,119.228516 1097.77246,118.876953 C1097.3916,118.535156 1097.1084,118.085938 1096.92285,117.529297 C1096.7373,116.982422 1096.64453,116.313477 1096.64453,115.522461 L1096.64453,115.522461 L1096.64453,110.117188 C1096.64453,109.404297 1096.7666,108.808594 1097.01074,108.330078 C1097.24512,107.861328 1097.56738,107.485352 1097.97754,107.202148 C1098.3877,106.918945 1098.87109,106.71875 1099.42773,106.601562 C1099.97461,106.484375 1100.56543,106.425781 1101.2002,106.425781 C1101.8252,106.425781 1102.41602,106.484375 1102.97266,106.601562 C1103.51953,106.71875 1103.99805,106.918945 1104.4082,107.202148 C1104.81836,107.485352 1105.14062,107.861328 1105.375,108.330078 C1105.60938,108.808594 1105.72656,109.404297 1105.72656,110.117188 L1105.72656,110.117188 L1105.72656,115.522461 C1105.72656,116.313477 1105.63379,116.982422 1105.44824,117.529297 C1105.2627,118.085938 1104.98438,118.535156 1104.61328,118.876953 C1104.23242,119.228516 1103.75879,119.482422 1103.19238,119.638672 C1102.62598,119.794922 1101.96191,119.873047 1101.2002,119.873047 Z M1121.29492,125 L1121.29492,124.707031 C1120.81641,124.277344 1120.38184,123.764648 1119.99121,123.168945 C1119.59082,122.583008 1119.25391,121.958008 1118.98047,121.293945 C1118.69727,120.629883 1118.47754,119.951172 1118.32129,119.257812 C1118.16504,118.564453 1118.08691,117.900391 1118.08691,117.265625 L1118.08691,117.265625 L1118.08691,114.350586 L1122.32031,114.350586 C1122.94531,114.350586 1123.53125,114.448242 1124.07812,114.643555 C1124.625,114.838867 1125.10352,115.117188 1125.51367,115.478516 C1125.92383,115.839844 1126.25098,116.279297 1126.49512,116.796875 C1126.72949,117.314453 1126.84668,117.900391 1126.84668,118.554688 L1126.84668,118.554688 L1126.84668,119.360352 C1126.84668,119.780273 1126.7832,120.234375 1126.65625,120.722656 C1126.51953,121.210938 1126.34863,121.694336 1126.14355,122.172852 C1125.93848,122.661133 1125.70898,123.125 1125.45508,123.564453 C1125.20117,124.013672 1124.94727,124.404297 1124.69336,124.736328 L1124.69336,124.736328 L1124.69336,125 L1132.25195,125 L1132.25195,124.707031 C1131.83203,124.414062 1131.43652,123.984375 1131.06543,123.417969 C1130.68457,122.861328 1130.35742,122.255859 1130.08398,121.601562 C1129.80078,120.947266 1129.57617,120.288086 1129.41016,119.624023 C1129.24414,118.969727 1129.16113,118.393555 1129.16113,117.895508 C1129.16113,117.416992 1129.09766,116.953125 1128.9707,116.503906 C1128.84375,116.054688 1128.66309,115.629883 1128.42871,115.229492 C1128.19434,114.838867 1127.91113,114.477539 1127.5791,114.145508 C1127.24707,113.823242 1126.87598,113.549805 1126.46582,113.325195 C1126.90527,113.032227 1127.29102,112.685547 1127.62305,112.285156 C1127.94531,111.884766 1128.21875,111.450195 1128.44336,110.981445 C1128.6582,110.522461 1128.82422,110.039062 1128.94141,109.53125 C1129.04883,109.023438 1129.10254,108.510742 1129.10254,107.993164 C1129.10254,107.124023 1128.96582,106.289062 1128.69238,105.488281 C1128.41895,104.6875 1128.02832,103.979492 1127.52051,103.364258 C1127.00293,102.758789 1126.37793,102.270508 1125.64551,101.899414 C1124.90332,101.538086 1124.07324,101.357422 1123.15527,101.357422 L1123.15527,101.357422 L1112.41797,101.357422 L1112.41797,101.606445 C1112.89648,102.016602 1113.33594,102.485352 1113.73633,103.012695 C1114.12695,103.549805 1114.46387,104.121094 1114.74707,104.726562 C1115.02051,105.332031 1115.23535,105.957031 1115.3916,106.601562 C1115.54785,107.255859 1115.62598,107.900391 1115.62598,108.535156 L1115.62598,108.535156 L1115.62598,117.265625 C1115.62598,117.919922 1115.54785,118.588867 1115.3916,119.272461 C1115.22559,119.96582 1115.00098,120.639648 1114.71777,121.293945 C1114.4248,121.958008 1114.07812,122.583008 1113.67773,123.168945 C1113.27734,123.754883 1112.83789,124.267578 1112.35938,124.707031 L1112.35938,124.707031 L1112.35938,125 L1121.29492,125 Z M1123.21387,111.743164 L1118.08691,111.743164 L1118.08691,108.769531 C1118.08691,108.496094 1118.13574,108.237305 1118.2334,107.993164 C1118.33105,107.749023 1118.46777,107.539062 1118.64355,107.363281 C1118.81934,107.1875 1119.0293,107.045898 1119.27344,106.938477 C1119.50781,106.84082 1119.76172,106.791992 1120.03516,106.791992 L1120.03516,106.791992 L1123.28711,106.791992 C1123.6582,106.791992 1124.03418,106.84082 1124.41504,106.938477 C1124.7959,107.036133 1125.1377,107.1875 1125.44043,107.392578 C1125.74316,107.597656 1125.99219,107.856445 1126.1875,108.168945 C1126.37305,108.481445 1126.46582,108.852539 1126.46582,109.282227 C1126.46582,109.72168 1126.36816,110.092773 1126.17285,110.395508 C1125.96777,110.708008 1125.70898,110.961914 1125.39648,111.157227 C1125.08398,111.362305 1124.7373,111.508789 1124.35645,111.59668 C1123.96582,111.694336 1123.58496,111.743164 1123.21387,111.743164 L1123.21387,111.743164 Z M1160.26855,125 C1160.01465,124.335938 1159.79492,123.632812 1159.60938,122.890625 C1159.42383,122.148438 1159.26758,121.396484 1159.14062,120.634766 C1159.00391,119.873047 1158.89648,119.111328 1158.81836,118.349609 C1158.73047,117.587891 1158.66699,116.855469 1158.62793,116.152344 C1158.46191,116.552734 1158.24707,116.958008 1157.9834,117.368164 C1157.70996,117.788086 1157.39746,118.168945 1157.0459,118.510742 C1156.69434,118.862305 1156.31348,119.145508 1155.90332,119.360352 C1155.4834,119.584961 1155.03906,119.697266 1154.57031,119.697266 L1154.57031,119.697266 L1153.36914,119.697266 C1153.07617,119.697266 1152.80273,119.638672 1152.54883,119.521484 C1152.28516,119.414062 1152.05566,119.262695 1151.86035,119.067383 C1151.66504,118.87207 1151.50879,118.642578 1151.3916,118.378906 C1151.27441,118.115234 1151.21582,117.832031 1151.21582,117.529297 L1151.21582,117.529297 L1151.21582,114.467773 C1151.58691,114.506836 1151.97754,114.575195 1152.3877,114.672852 C1152.78809,114.770508 1153.17871,114.902344 1153.55957,115.068359 C1153.94043,115.244141 1154.29688,115.454102 1154.62891,115.698242 C1154.95117,115.952148 1155.22461,116.245117 1155.44922,116.577148 L1155.44922,116.577148 L1155.56641,116.416016 C1155.40039,115.888672 1155.2832,115.351562 1155.21484,114.804688 C1155.14648,114.257812 1155.1123,113.706055 1155.1123,113.149414 C1155.1123,112.592773 1155.14648,112.041016 1155.21484,111.494141 C1155.2832,110.947266 1155.40039,110.410156 1155.56641,109.882812 L1155.56641,109.882812 L1155.44922,109.736328 C1155.22461,110.068359 1154.95117,110.356445 1154.62891,110.600586 C1154.29688,110.844727 1153.94043,111.049805 1153.55957,111.21582 C1153.17871,111.391602 1152.78809,111.523438 1152.3877,111.611328 C1151.97754,111.708984 1151.58691,111.772461 1151.21582,111.801758 L1151.21582,111.801758 L1151.21582,109.077148 C1151.21582,108.774414 1151.27441,108.491211 1151.3916,108.227539 C1151.50879,107.963867 1151.66504,107.734375 1151.86035,107.539062 C1152.05566,107.34375 1152.28516,107.1875 1152.54883,107.070312 C1152.80273,106.962891 1153.07617,106.90918 1153.36914,106.90918 L1153.36914,106.90918 L1154.57031,106.90918 C1155.03906,106.90918 1155.4834,106.992188 1155.90332,107.158203 C1156.32324,107.324219 1156.70898,107.548828 1157.06055,107.832031 C1157.41211,108.115234 1157.72949,108.4375 1158.0127,108.798828 C1158.28613,109.169922 1158.51074,109.560547 1158.68652,109.970703 C1158.72559,109.287109 1158.78906,108.574219 1158.87695,107.832031 C1158.96484,107.089844 1159.07715,106.342773 1159.21387,105.59082 C1159.35059,104.848633 1159.5166,104.116211 1159.71191,103.393555 C1159.90723,102.670898 1160.13672,101.992188 1160.40039,101.357422 L1160.40039,101.357422 L1145.63477,101.357422 L1145.63477,101.870117 C1146.10352,102.280273 1146.52832,102.744141 1146.90918,103.261719 C1147.29004,103.779297 1147.61719,104.326172 1147.89062,104.902344 C1148.16406,105.488281 1148.37891,106.09375 1148.53516,106.71875 C1148.68164,107.34375 1148.75488,107.96875 1148.75488,108.59375 L1148.75488,108.59375 L1148.75488,117.617188 C1148.75488,118.251953 1148.68164,118.896484 1148.53516,119.550781 C1148.37891,120.205078 1148.16406,120.839844 1147.89062,121.455078 C1147.60742,122.080078 1147.27539,122.666016 1146.89453,123.212891 C1146.51367,123.769531 1146.09375,124.267578 1145.63477,124.707031 L1145.63477,124.707031 L1145.63477,125 L1160.26855,125 Z M1177.74121,125 L1177.74121,124.707031 C1177.4873,124.521484 1177.28223,124.301758 1177.12598,124.047852 C1176.96973,123.793945 1176.84766,123.520508 1176.75977,123.227539 C1176.66211,122.944336 1176.59863,122.646484 1176.56934,122.333984 C1176.53027,122.03125 1176.51074,121.738281 1176.51074,121.455078 C1176.51074,120.917969 1176.55957,120.380859 1176.65723,119.84375 C1176.75488,119.316406 1176.88672,118.793945 1177.05273,118.276367 L1177.05273,118.276367 L1180.43652,107.539062 C1180.58301,107.060547 1180.80273,106.552734 1181.0957,106.015625 C1181.38867,105.478516 1181.71582,104.946289 1182.07715,104.418945 C1182.42871,103.891602 1182.79492,103.383789 1183.17578,102.895508 C1183.55664,102.407227 1183.91309,101.977539 1184.24512,101.606445 L1184.24512,101.606445 L1184.24512,101.357422 L1175.0752,101.357422 L1175.0752,101.606445 C1175.46582,101.899414 1175.82715,102.202148 1176.15918,102.514648 C1176.48145,102.836914 1176.75977,103.178711 1176.99414,103.540039 C1177.22852,103.911133 1177.41406,104.311523 1177.55078,104.741211 C1177.67773,105.170898 1177.74121,105.654297 1177.74121,106.191406 C1177.74121,106.582031 1177.70703,106.972656 1177.63867,107.363281 C1177.57031,107.763672 1177.47266,108.154297 1177.3457,108.535156 L1177.3457,108.535156 L1174.25488,119.052734 L1171.13477,108.535156 C1171.01758,108.154297 1170.9248,107.763672 1170.85645,107.363281 C1170.78809,106.972656 1170.75391,106.582031 1170.75391,106.191406 C1170.75391,105.654297 1170.81738,105.170898 1170.94434,104.741211 C1171.07129,104.311523 1171.25195,103.911133 1171.48633,103.540039 C1171.7207,103.178711 1172.00391,102.836914 1172.33594,102.514648 C1172.6582,102.202148 1173.01953,101.899414 1173.41992,101.606445 L1173.41992,101.606445 L1173.41992,101.357422 L1164.23535,101.357422 L1164.23535,101.606445 C1164.56738,101.977539 1164.92383,102.407227 1165.30469,102.895508 C1165.68555,103.383789 1166.05664,103.891602 1166.41797,104.418945 C1166.76953,104.946289 1167.0918,105.478516 1167.38477,106.015625 C1167.67773,106.552734 1167.89746,107.060547 1168.04395,107.539062 L1168.04395,107.539062 L1171.44238,118.276367 C1171.6084,118.793945 1171.74023,119.316406 1171.83789,119.84375 C1171.93555,120.380859 1171.98438,120.917969 1171.98438,121.455078 C1171.98438,121.738281 1171.96973,122.03125 1171.94043,122.333984 C1171.90137,122.646484 1171.83789,122.944336 1171.75,123.227539 C1171.65234,123.520508 1171.52539,123.793945 1171.36914,124.047852 C1171.20312,124.301758 1170.99805,124.521484 1170.75391,124.707031 L1170.75391,124.707031 L1170.75391,125 L1177.74121,125 Z M1202.72852,125 C1202.47461,124.335938 1202.25488,123.632812 1202.06934,122.890625 C1201.88379,122.148438 1201.72754,121.396484 1201.60059,120.634766 C1201.46387,119.873047 1201.35645,119.111328 1201.27832,118.349609 C1201.19043,117.587891 1201.12695,116.855469 1201.08789,116.152344 C1200.92188,116.552734 1200.70703,116.958008 1200.44336,117.368164 C1200.16992,117.788086 1199.85742,118.168945 1199.50586,118.510742 C1199.1543,118.862305 1198.77344,119.145508 1198.36328,119.360352 C1197.94336,119.584961 1197.49902,119.697266 1197.03027,119.697266 L1197.03027,119.697266 L1195.8291,119.697266 C1195.53613,119.697266 1195.2627,119.638672 1195.00879,119.521484 C1194.74512,119.414062 1194.51562,119.262695 1194.32031,119.067383 C1194.125,118.87207 1193.96875,118.642578 1193.85156,118.378906 C1193.73438,118.115234 1193.67578,117.832031 1193.67578,117.529297 L1193.67578,117.529297 L1193.67578,114.467773 C1194.04688,114.506836 1194.4375,114.575195 1194.84766,114.672852 C1195.24805,114.770508 1195.63867,114.902344 1196.01953,115.068359 C1196.40039,115.244141 1196.75684,115.454102 1197.08887,115.698242 C1197.41113,115.952148 1197.68457,116.245117 1197.90918,116.577148 L1197.90918,116.577148 L1198.02637,116.416016 C1197.86035,115.888672 1197.74316,115.351562 1197.6748,114.804688 C1197.60645,114.257812 1197.57227,113.706055 1197.57227,113.149414 C1197.57227,112.592773 1197.60645,112.041016 1197.6748,111.494141 C1197.74316,110.947266 1197.86035,110.410156 1198.02637,109.882812 L1198.02637,109.882812 L1197.90918,109.736328 C1197.68457,110.068359 1197.41113,110.356445 1197.08887,110.600586 C1196.75684,110.844727 1196.40039,111.049805 1196.01953,111.21582 C1195.63867,111.391602 1195.24805,111.523438 1194.84766,111.611328 C1194.4375,111.708984 1194.04688,111.772461 1193.67578,111.801758 L1193.67578,111.801758 L1193.67578,109.077148 C1193.67578,108.774414 1193.73438,108.491211 1193.85156,108.227539 C1193.96875,107.963867 1194.125,107.734375 1194.32031,107.539062 C1194.51562,107.34375 1194.74512,107.1875 1195.00879,107.070312 C1195.2627,106.962891 1195.53613,106.90918 1195.8291,106.90918 L1195.8291,106.90918 L1197.03027,106.90918 C1197.49902,106.90918 1197.94336,106.992188 1198.36328,107.158203 C1198.7832,107.324219 1199.16895,107.548828 1199.52051,107.832031 C1199.87207,108.115234 1200.18945,108.4375 1200.47266,108.798828 C1200.74609,109.169922 1200.9707,109.560547 1201.14648,109.970703 C1201.18555,109.287109 1201.24902,108.574219 1201.33691,107.832031 C1201.4248,107.089844 1201.53711,106.342773 1201.67383,105.59082 C1201.81055,104.848633 1201.97656,104.116211 1202.17188,103.393555 C1202.36719,102.670898 1202.59668,101.992188 1202.86035,101.357422 L1202.86035,101.357422 L1188.09473,101.357422 L1188.09473,101.870117 C1188.56348,102.280273 1188.98828,102.744141 1189.36914,103.261719 C1189.75,103.779297 1190.07715,104.326172 1190.35059,104.902344 C1190.62402,105.488281 1190.83887,106.09375 1190.99512,106.71875 C1191.1416,107.34375 1191.21484,107.96875 1191.21484,108.59375 L1191.21484,108.59375 L1191.21484,117.617188 C1191.21484,118.251953 1191.1416,118.896484 1190.99512,119.550781 C1190.83887,120.205078 1190.62402,120.839844 1190.35059,121.455078 C1190.06738,122.080078 1189.73535,122.666016 1189.35449,123.212891 C1188.97363,123.769531 1188.55371,124.267578 1188.09473,124.707031 L1188.09473,124.707031 L1188.09473,125 L1202.72852,125 Z M1216.11426,125 L1216.11426,124.707031 C1215.63574,124.277344 1215.20117,123.764648 1214.81055,123.168945 C1214.41016,122.583008 1214.07324,121.958008 1213.7998,121.293945 C1213.5166,120.629883 1213.29688,119.951172 1213.14062,119.257812 C1212.98438,118.564453 1212.90625,117.900391 1212.90625,117.265625 L1212.90625,117.265625 L1212.90625,114.350586 L1217.13965,114.350586 C1217.76465,114.350586 1218.35059,114.448242 1218.89746,114.643555 C1219.44434,114.838867 1219.92285,115.117188 1220.33301,115.478516 C1220.74316,115.839844 1221.07031,116.279297 1221.31445,116.796875 C1221.54883,117.314453 1221.66602,117.900391 1221.66602,118.554688 L1221.66602,118.554688 L1221.66602,119.360352 C1221.66602,119.780273 1221.60254,120.234375 1221.47559,120.722656 C1221.33887,121.210938 1221.16797,121.694336 1220.96289,122.172852 C1220.75781,122.661133 1220.52832,123.125 1220.27441,123.564453 C1220.02051,124.013672 1219.7666,124.404297 1219.5127,124.736328 L1219.5127,124.736328 L1219.5127,125 L1227.07129,125 L1227.07129,124.707031 C1226.65137,124.414062 1226.25586,123.984375 1225.88477,123.417969 C1225.50391,122.861328 1225.17676,122.255859 1224.90332,121.601562 C1224.62012,120.947266 1224.39551,120.288086 1224.22949,119.624023 C1224.06348,118.969727 1223.98047,118.393555 1223.98047,117.895508 C1223.98047,117.416992 1223.91699,116.953125 1223.79004,116.503906 C1223.66309,116.054688 1223.48242,115.629883 1223.24805,115.229492 C1223.01367,114.838867 1222.73047,114.477539 1222.39844,114.145508 C1222.06641,113.823242 1221.69531,113.549805 1221.28516,113.325195 C1221.72461,113.032227 1222.11035,112.685547 1222.44238,112.285156 C1222.76465,111.884766 1223.03809,111.450195 1223.2627,110.981445 C1223.47754,110.522461 1223.64355,110.039062 1223.76074,109.53125 C1223.86816,109.023438 1223.92188,108.510742 1223.92188,107.993164 C1223.92188,107.124023 1223.78516,106.289062 1223.51172,105.488281 C1223.23828,104.6875 1222.84766,103.979492 1222.33984,103.364258 C1221.82227,102.758789 1221.19727,102.270508 1220.46484,101.899414 C1219.72266,101.538086 1218.89258,101.357422 1217.97461,101.357422 L1217.97461,101.357422 L1207.2373,101.357422 L1207.2373,101.606445 C1207.71582,102.016602 1208.15527,102.485352 1208.55566,103.012695 C1208.94629,103.549805 1209.2832,104.121094 1209.56641,104.726562 C1209.83984,105.332031 1210.05469,105.957031 1210.21094,106.601562 C1210.36719,107.255859 1210.44531,107.900391 1210.44531,108.535156 L1210.44531,108.535156 L1210.44531,117.265625 C1210.44531,117.919922 1210.36719,118.588867 1210.21094,119.272461 C1210.04492,119.96582 1209.82031,120.639648 1209.53711,121.293945 C1209.24414,121.958008 1208.89746,122.583008 1208.49707,123.168945 C1208.09668,123.754883 1207.65723,124.267578 1207.17871,124.707031 L1207.17871,124.707031 L1207.17871,125 L1216.11426,125 Z M1218.0332,111.743164 L1212.90625,111.743164 L1212.90625,108.769531 C1212.90625,108.496094 1212.95508,108.237305 1213.05273,107.993164 C1213.15039,107.749023 1213.28711,107.539062 1213.46289,107.363281 C1213.63867,107.1875 1213.84863,107.045898 1214.09277,106.938477 C1214.32715,106.84082 1214.58105,106.791992 1214.85449,106.791992 L1214.85449,106.791992 L1218.10645,106.791992 C1218.47754,106.791992 1218.85352,106.84082 1219.23438,106.938477 C1219.61523,107.036133 1219.95703,107.1875 1220.25977,107.392578 C1220.5625,107.597656 1220.81152,107.856445 1221.00684,108.168945 C1221.19238,108.481445 1221.28516,108.852539 1221.28516,109.282227 C1221.28516,109.72168 1221.1875,110.092773 1220.99219,110.395508 C1220.78711,110.708008 1220.52832,110.961914 1220.21582,111.157227 C1219.90332,111.362305 1219.55664,111.508789 1219.17578,111.59668 C1218.78516,111.694336 1218.4043,111.743164 1218.0332,111.743164 L1218.0332,111.743164 Z M1241.89258,125 L1241.89258,124.765625 C1241.41406,124.345703 1240.97949,123.837891 1240.58887,123.242188 C1240.18848,122.646484 1239.84668,122.011719 1239.56348,121.337891 C1239.28027,120.664062 1239.06055,119.975586 1238.9043,119.272461 C1238.74805,118.569336 1238.66992,117.900391 1238.66992,117.265625 L1238.66992,117.265625 L1238.66992,116.577148 L1242.27344,107.993164 C1242.54688,107.348633 1242.84473,106.699219 1243.16699,106.044922 C1243.48926,105.390625 1243.86035,104.775391 1244.28027,104.199219 C1244.7002,103.623047 1245.18359,103.105469 1245.73047,102.646484 C1246.27734,102.197266 1246.90723,101.850586 1247.62012,101.606445 L1247.62012,101.606445 L1247.62012,101.357422 L1238.43555,101.357422 L1238.43555,101.606445 C1238.74805,101.821289 1239.02637,102.045898 1239.27051,102.280273 C1239.51465,102.514648 1239.72461,102.768555 1239.90039,103.041992 C1240.06641,103.31543 1240.19336,103.613281 1240.28125,103.935547 C1240.36914,104.257812 1240.41309,104.619141 1240.41309,105.019531 C1240.41309,105.625 1240.3252,106.225586 1240.14941,106.821289 C1239.97363,107.416992 1239.77344,107.988281 1239.54883,108.535156 L1239.54883,108.535156 L1237.57129,113.120117 L1235.62305,108.535156 C1235.39844,107.988281 1235.19824,107.416992 1235.02246,106.821289 C1234.83691,106.225586 1234.74414,105.625 1234.74414,105.019531 C1234.74414,104.619141 1234.78809,104.257812 1234.87598,103.935547 C1234.96387,103.613281 1235.09082,103.31543 1235.25684,103.041992 C1235.42285,102.768555 1235.63281,102.514648 1235.88672,102.280273 C1236.13086,102.045898 1236.40918,101.821289 1236.72168,101.606445 L1236.72168,101.606445 L1236.72168,101.357422 L1227.30273,101.357422 L1227.30273,101.606445 C1228.01562,101.850586 1228.64551,102.197266 1229.19238,102.646484 C1229.73926,103.105469 1230.22266,103.623047 1230.64258,104.199219 C1231.0625,104.775391 1231.43359,105.390625 1231.75586,106.044922 C1232.07812,106.699219 1232.37598,107.348633 1232.64941,107.993164 L1232.64941,107.993164 L1236.22363,116.474609 L1236.22363,117.265625 C1236.22363,117.919922 1236.14551,118.588867 1235.98926,119.272461 C1235.82324,119.96582 1235.59375,120.639648 1235.30078,121.293945 C1235.00781,121.958008 1234.66113,122.583008 1234.26074,123.168945 C1233.86035,123.754883 1233.4209,124.267578 1232.94238,124.707031 L1232.94238,124.707031 L1232.94238,125 L1241.89258,125 Z M1257.43164,125.292969 C1258.34961,125.292969 1259.22363,125.166016 1260.05371,124.912109 C1260.88379,124.667969 1261.61133,124.296875 1262.23633,123.798828 C1262.86133,123.310547 1263.35938,122.69043 1263.73047,121.938477 C1264.0918,121.196289 1264.27246,120.327148 1264.27246,119.331055 L1264.27246,119.331055 L1264.27246,107.084961 C1264.27246,106.088867 1264.0918,105.214844 1263.73047,104.462891 C1263.35938,103.720703 1262.86133,103.100586 1262.23633,102.602539 C1261.61133,102.114258 1260.88379,101.743164 1260.05371,101.489258 C1259.22363,101.245117 1258.34961,101.123047 1257.43164,101.123047 L1257.43164,101.123047 L1254.79492,101.489258 C1253.96484,101.743164 1253.2373,102.114258 1252.6123,102.602539 C1251.9873,103.100586 1251.48926,103.720703 1251.11816,104.462891 C1250.74707,105.214844 1250.56152,106.088867 1250.56152,107.084961 L1250.56152,107.084961 L1250.56152,119.331055 C1250.56152,120.327148 1250.74707,121.196289 1251.11816,121.938477 C1251.48926,122.69043 1251.9873,123.310547 1252.6123,123.798828 C1253.2373,124.296875 1253.96484,124.667969 1254.79492,124.912109 C1255.625,125.166016 1256.50391,125.292969 1257.43164,125.292969 Z M1257.43164,119.873047 C1256.66992,119.873047 1256.00586,119.794922 1255.43945,119.638672 C1254.86328,119.482422 1254.38477,119.228516 1254.00391,118.876953 C1253.62305,118.535156 1253.33984,118.085938 1253.1543,117.529297 C1252.96875,116.982422 1252.87598,116.313477 1252.87598,115.522461 L1252.87598,115.522461 L1252.87598,110.117188 C1252.87598,109.404297 1252.99805,108.808594 1253.24219,108.330078 C1253.47656,107.861328 1253.79883,107.485352 1254.20898,107.202148 C1254.61914,106.918945 1255.10254,106.71875 1255.65918,106.601562 C1256.20605,106.484375 1256.79688,106.425781 1257.43164,106.425781 C1258.05664,106.425781 1258.64746,106.484375 1259.2041,106.601562 C1259.75098,106.71875 1260.22949,106.918945 1260.63965,107.202148 C1261.0498,107.485352 1261.37207,107.861328 1261.60645,108.330078 C1261.84082,108.808594 1261.95801,109.404297 1261.95801,110.117188 L1261.95801,110.117188 L1261.95801,115.522461 C1261.95801,116.313477 1261.86523,116.982422 1261.67969,117.529297 C1261.49414,118.085938 1261.21582,118.535156 1260.84473,118.876953 C1260.46387,119.228516 1259.99023,119.482422 1259.42383,119.638672 C1258.85742,119.794922 1258.19336,119.873047 1257.43164,119.873047 Z M1277.2627,125 L1277.2627,124.707031 C1276.77441,124.277344 1276.34473,123.764648 1275.97363,123.168945 C1275.60254,122.583008 1275.29004,121.953125 1275.03613,121.279297 C1274.78223,120.615234 1274.5918,119.936523 1274.46484,119.243164 C1274.32812,118.55957 1274.25977,117.900391 1274.25977,117.265625 L1274.25977,117.265625 L1274.25977,108.535156 L1280.5,119.594727 C1280.75391,120.053711 1280.94434,120.551758 1281.07129,121.088867 C1281.18848,121.625977 1281.24707,122.148438 1281.24707,122.65625 C1281.24707,122.998047 1281.20801,123.354492 1281.12988,123.725586 C1281.05176,124.09668 1280.89062,124.423828 1280.64648,124.707031 L1280.64648,124.707031 L1280.64648,125 L1286.68164,125 L1286.68164,124.707031 C1286.18359,124.267578 1285.79785,123.740234 1285.52441,123.125 C1285.25098,122.509766 1285.05078,121.855469 1284.92383,121.162109 C1284.78711,120.478516 1284.70898,119.780273 1284.68945,119.067383 C1284.66016,118.364258 1284.64551,117.709961 1284.64551,117.104492 L1284.64551,117.104492 L1284.64551,108.535156 C1284.64551,107.910156 1284.72363,107.270508 1284.87988,106.616211 C1285.03613,105.97168 1285.25586,105.341797 1285.53906,104.726562 C1285.8125,104.121094 1286.14941,103.549805 1286.5498,103.012695 C1286.94043,102.475586 1287.375,102.006836 1287.85352,101.606445 L1287.85352,101.606445 L1287.85352,101.357422 L1278.97656,101.357422 L1278.97656,101.606445 C1279.45508,102.006836 1279.89453,102.475586 1280.29492,103.012695 C1280.68555,103.549805 1281.02246,104.121094 1281.30566,104.726562 C1281.5791,105.341797 1281.79395,105.97168 1281.9502,106.616211 C1282.10645,107.270508 1282.18457,107.910156 1282.18457,108.535156 L1282.18457,108.535156 L1282.18457,117.265625 L1277.49707,108.886719 C1277.13574,108.242188 1276.84766,107.548828 1276.63281,106.806641 C1276.4082,106.074219 1276.2959,105.327148 1276.2959,104.56543 C1276.2959,104.301758 1276.31543,104.023438 1276.35449,103.730469 C1276.38379,103.447266 1276.44727,103.168945 1276.54492,102.895508 C1276.63281,102.631836 1276.75488,102.382812 1276.91113,102.148438 C1277.06738,101.923828 1277.2627,101.743164 1277.49707,101.606445 L1277.49707,101.606445 L1277.49707,101.357422 L1268.59082,101.357422 L1268.59082,101.606445 C1269.72363,102.495117 1270.54883,103.515625 1271.06641,104.667969 C1271.57422,105.820312 1271.82812,107.109375 1271.82812,108.535156 L1271.82812,108.535156 L1271.82812,117.265625 C1271.82812,117.919922 1271.75977,118.588867 1271.62305,119.272461 C1271.48633,119.96582 1271.29102,120.639648 1271.03711,121.293945 C1270.77344,121.958008 1270.45117,122.583008 1270.07031,123.168945 C1269.68945,123.754883 1269.25488,124.267578 1268.7666,124.707031 L1268.7666,124.707031 L1268.7666,125 L1277.2627,125 Z M1306.80566,125 C1306.55176,124.335938 1306.33203,123.632812 1306.14648,122.890625 C1305.96094,122.148438 1305.80469,121.396484 1305.67773,120.634766 C1305.54102,119.873047 1305.43359,119.111328 1305.35547,118.349609 C1305.26758,117.587891 1305.2041,116.855469 1305.16504,116.152344 C1304.99902,116.552734 1304.78418,116.958008 1304.52051,117.368164 C1304.24707,117.788086 1303.93457,118.168945 1303.58301,118.510742 C1303.23145,118.862305 1302.85059,119.145508 1302.44043,119.360352 C1302.02051,119.584961 1301.57617,119.697266 1301.10742,119.697266 L1301.10742,119.697266 L1299.90625,119.697266 C1299.61328,119.697266 1299.33984,119.638672 1299.08594,119.521484 C1298.82227,119.414062 1298.59277,119.262695 1298.39746,119.067383 C1298.20215,118.87207 1298.0459,118.642578 1297.92871,118.378906 C1297.81152,118.115234 1297.75293,117.832031 1297.75293,117.529297 L1297.75293,117.529297 L1297.75293,114.467773 C1298.12402,114.506836 1298.51465,114.575195 1298.9248,114.672852 C1299.3252,114.770508 1299.71582,114.902344 1300.09668,115.068359 C1300.47754,115.244141 1300.83398,115.454102 1301.16602,115.698242 C1301.48828,115.952148 1301.76172,116.245117 1301.98633,116.577148 L1301.98633,116.577148 L1302.10352,116.416016 C1301.9375,115.888672 1301.82031,115.351562 1301.75195,114.804688 C1301.68359,114.257812 1301.64941,113.706055 1301.64941,113.149414 C1301.64941,112.592773 1301.68359,112.041016 1301.75195,111.494141 C1301.82031,110.947266 1301.9375,110.410156 1302.10352,109.882812 L1302.10352,109.882812 L1301.98633,109.736328 C1301.76172,110.068359 1301.48828,110.356445 1301.16602,110.600586 C1300.83398,110.844727 1300.47754,111.049805 1300.09668,111.21582 C1299.71582,111.391602 1299.3252,111.523438 1298.9248,111.611328 C1298.51465,111.708984 1298.12402,111.772461 1297.75293,111.801758 L1297.75293,111.801758 L1297.75293,109.077148 C1297.75293,108.774414 1297.81152,108.491211 1297.92871,108.227539 C1298.0459,107.963867 1298.20215,107.734375 1298.39746,107.539062 C1298.59277,107.34375 1298.82227,107.1875 1299.08594,107.070312 C1299.33984,106.962891 1299.61328,106.90918 1299.90625,106.90918 L1299.90625,106.90918 L1301.10742,106.90918 C1301.57617,106.90918 1302.02051,106.992188 1302.44043,107.158203 C1302.86035,107.324219 1303.24609,107.548828 1303.59766,107.832031 C1303.94922,108.115234 1304.2666,108.4375 1304.5498,108.798828 C1304.82324,109.169922 1305.04785,109.560547 1305.22363,109.970703 C1305.2627,109.287109 1305.32617,108.574219 1305.41406,107.832031 C1305.50195,107.089844 1305.61426,106.342773 1305.75098,105.59082 C1305.8877,104.848633 1306.05371,104.116211 1306.24902,103.393555 C1306.44434,102.670898 1306.67383,101.992188 1306.9375,101.357422 L1306.9375,101.357422 L1292.17188,101.357422 L1292.17188,101.870117 C1292.64062,102.280273 1293.06543,102.744141 1293.44629,103.261719 C1293.82715,103.779297 1294.1543,104.326172 1294.42773,104.902344 C1294.70117,105.488281 1294.91602,106.09375 1295.07227,106.71875 C1295.21875,107.34375 1295.29199,107.96875 1295.29199,108.59375 L1295.29199,108.59375 L1295.29199,117.617188 C1295.29199,118.251953 1295.21875,118.896484 1295.07227,119.550781 C1294.91602,120.205078 1294.70117,120.839844 1294.42773,121.455078 C1294.14453,122.080078 1293.8125,122.666016 1293.43164,123.212891 C1293.05078,123.769531 1292.63086,124.267578 1292.17188,124.707031 L1292.17188,124.707031 L1292.17188,125 L1306.80566,125 Z" id="SPACEFOREVERYONE"></path>
        </g>
    </g>
</svg>